<svg
          className="float-right"
          xmlns="http://www.w3.org/2000/svg"
          width="18"
          height="14"
          viewBox="0 0 18 14"
          fill="none"
        >
          <path
            d="M16.2481 1.179C17.2781 2.273 17.8311 3.5 17.8311 5.489C17.8311 8.989 15.3741 12.126 11.8011 13.677L10.9081 12.299C14.2431 10.495 14.8951 8.154 15.1551 6.678C14.6181 6.956 13.9151 7.053 13.2261 6.989C11.4221 6.822 10.0001 5.341 10.0001 3.5C10.0001 2.57174 10.3688 1.68151 11.0252 1.02513C11.6816 0.36875 12.5718 1.90735e-06 13.5001 1.90735e-06C14.0134 0.00448799 14.5207 0.111036 14.9925 0.313446C15.4643 0.515856 15.8911 0.810084 16.2481 1.179ZM6.24805 1.179C7.27805 2.273 7.83105 3.5 7.83105 5.489C7.83105 8.989 5.37405 12.126 1.80105 13.677L0.908054 12.299C4.24305 10.495 4.89505 8.154 5.15506 6.678C4.61806 6.956 3.91506 7.053 3.22606 6.989C1.42205 6.822 5.53131e-05 5.341 5.53131e-05 3.5C5.53131e-05 2.57174 0.368803 1.68151 1.02518 1.02513C1.68156 0.36875 2.5718 1.90735e-06 3.50006 1.90735e-06C4.0134 0.00448799 4.52072 0.111036 4.99249 0.313446C5.46427 0.515856 5.89107 0.810084 6.24805 1.179Z"
            fill="black"
/>
 </svg>