<!DOCTYPE svg PUBLIC "-//W3C//DTD SVG 1.1//EN" "http://www.w3.org/Graphics/SVG/1.1/DTD/svg11.dtd">
<!-- Uploaded to: SVG Repo, www.svgrepo.com, Transformed by: SVG Repo Mixer Tools -->
<svg fill="#CB5C1C" width="800px" height="800px" viewBox="0 0 24 24" xmlns="http://www.w3.org/2000/svg">
<g id="SVGRepo_bgCarrier" stroke-width="0"/>
<g id="SVGRepo_tracerCarrier" stroke-linecap="round" stroke-linejoin="round"/>
<g id="SVGRepo_iconCarrier">
<path d="M20,21V3H13a1,1,0,0,1,0-2h8a1,1,0,0,1,1,1V22a1,1,0,0,1-1,1H13a1,1,0,0,1,0-2ZM2,12a1,1,0,0,0,1,1H14.586l-2.293,2.293a1,1,0,1,0,1.414,1.414l4-4a1,1,0,0,0,0-1.414l-4-4a1,1,0,1,0-1.414,1.414L14.586,11H3A1,1,0,0,0,2,12Z"/>
</g>
</svg>