<svg
          xmlns="http://www.w3.org/2000/svg"
          width="18"
          height="14"
          viewBox="0 0 18 14"
          fill="none"
          className="float-left"
        >
          <path
            d="M1.583 12.498C0.553 11.404 0 10.177 0 8.188C0 4.688 2.457 1.551 6.03 0L6.923 1.378C3.588 3.182 2.936 5.523 2.676 6.999C3.213 6.721 3.916 6.624 4.605 6.688C6.409 6.855 7.831 8.336 7.831 10.177C7.831 11.1053 7.46225 11.9955 6.80587 12.6519C6.1495 13.3083 5.25926 13.677 4.331 13.677C3.81766 13.6725 3.31034 13.566 2.83856 13.3636C2.36679 13.1611 1.93999 12.8669 1.583 12.498ZM11.583 12.498C10.553 11.404 10 10.177 10 8.188C10 4.688 12.457 1.551 16.03 0L16.923 1.378C13.588 3.182 12.936 5.523 12.676 6.999C13.213 6.721 13.916 6.624 14.605 6.688C16.409 6.855 17.831 8.336 17.831 10.177C17.831 11.1053 17.4623 11.9955 16.8059 12.6519C16.1495 13.3083 15.2593 13.677 14.331 13.677C13.8177 13.6725 13.3103 13.566 12.8386 13.3636C12.3668 13.1611 11.94 12.8669 11.583 12.498Z"
            fill="black"
          />
        </svg>