<svg xmlns="http://www.w3.org/2000/svg" width="24" height="24" viewBox="0 0 24 24" fill="none">
<path d="M12.7101 17.71L17.7101 12.71C17.8011 12.6149 17.8725 12.5028 17.9201 12.38C18.0201 12.1365 18.0201 11.8635 17.9201 11.62C17.8725 11.4973 17.8011 11.3851 17.7101 11.29L12.7101 6.29C12.6169 6.19676 12.5062 6.1228 12.3844 6.07234C12.2625 6.02188 12.132 5.99591 12.0001 5.99591C11.7338 5.99591 11.4784 6.1017 11.2901 6.29C11.1018 6.47831 10.996 6.7337 10.996 7C10.996 7.2663 11.1018 7.5217 11.2901 7.71L14.5901 11L7.0001 11C6.73489 11 6.48053 11.1054 6.293 11.2929C6.10546 11.4804 6.0001 11.7348 6.0001 12C6.0001 12.2652 6.10546 12.5196 6.293 12.7071C6.48053 12.8946 6.73489 13 7.0001 13L14.5901 13L11.2901 16.29C11.1964 16.383 11.122 16.4936 11.0712 16.6154C11.0204 16.7373 10.9943 16.868 10.9943 17C10.9943 17.132 11.0204 17.2627 11.0712 17.3846C11.122 17.5064 11.1964 17.617 11.2901 17.71C11.3831 17.8037 11.4937 17.8781 11.6155 17.9289C11.7374 17.9797 11.8681 18.0058 12.0001 18.0058C12.1321 18.0058 12.2628 17.9797 12.3847 17.9289C12.5065 17.8781 12.6171 17.8037 12.7101 17.71Z" fill="#FF8541"/>
</svg>