<svg xmlns="http://www.w3.org/2000/svg" width="20" height="20" viewBox="0 0 20 20" fill="none">
  <path d="M0.606528 10.4685L7.32528 12.3373C7.40548 12.3604 7.4785 12.4035 7.53752 12.4625C7.59654 12.5216 7.63964 12.5946 7.66278 12.6748L9.53153 19.3935C9.56063 19.4954 9.62212 19.585 9.7067 19.6488C9.79128 19.7126 9.89434 19.7471 10.0003 19.7471C10.1062 19.7471 10.2093 19.7126 10.2939 19.6488C10.3784 19.585 10.4399 19.4954 10.469 19.3935L12.3378 12.6748C12.3609 12.5946 12.404 12.5216 12.463 12.4625C12.5221 12.4035 12.5951 12.3604 12.6753 12.3373L19.394 10.4685C19.4959 10.4394 19.5855 10.3779 19.6493 10.2934C19.7131 10.2088 19.7476 10.1057 19.7476 9.99979C19.7476 9.89385 19.7131 9.79079 19.6493 9.70621C19.5855 9.62163 19.4959 9.56014 19.394 9.53104L12.6753 7.66229C12.5951 7.63915 12.5221 7.59605 12.463 7.53703C12.404 7.47801 12.3609 7.40499 12.3378 7.32479L10.469 0.60604C10.4399 0.504171 10.3784 0.414555 10.2939 0.350754C10.2093 0.286954 10.1062 0.252441 10.0003 0.252441C9.89434 0.252441 9.79128 0.286954 9.7067 0.350754C9.62212 0.414555 9.56063 0.504171 9.53153 0.60604L7.66278 7.32479C7.63964 7.40499 7.59654 7.47801 7.53752 7.53703C7.4785 7.59605 7.40548 7.63915 7.32528 7.66229L0.606528 9.53104C0.504659 9.56014 0.415043 9.62163 0.351243 9.70621C0.287442 9.79079 0.25293 9.89385 0.25293 9.99979C0.25293 10.1057 0.287442 10.2088 0.351243 10.2934C0.415043 10.3779 0.504659 10.4394 0.606528 10.4685Z" fill="url(#paint0_linear_2059_32848)" stroke="#FCD34D" stroke-width="0.1875" stroke-linecap="round" stroke-linejoin="round"/>
  <defs>
    <linearGradient id="paint0_linear_2059_32848" x1="5.74403" y1="2.63104" x2="14.2565" y2="17.3685" gradientUnits="userSpaceOnUse">
      <stop stop-color="#FCD966"/>
      <stop offset="0.5" stop-color="#FCD966"/>
      <stop offset="1" stop-color="#FCCD34"/>
    </linearGradient>
  </defs>
</svg>