<svg width="25" height="24" viewBox="0 0 25 24" fill="none" xmlns="http://www.w3.org/2000/svg">
<g id="lets-icons:video-fill">
<path id="Vector" fill-rule="evenodd" clip-rule="evenodd" d="M12.5 21C13.6819 21 14.8522 20.7672 15.9442 20.3149C17.0361 19.8626 18.0282 19.1997 18.864 18.364C19.6997 17.5282 20.3626 16.5361 20.8149 15.4442C21.2672 14.3522 21.5 13.1819 21.5 12C21.5 10.8181 21.2672 9.64778 20.8149 8.55585C20.3626 7.46392 19.6997 6.47177 18.864 5.63604C18.0282 4.80031 17.0361 4.13738 15.9442 3.68508C14.8522 3.23279 13.6819 3 12.5 3C10.1131 3 7.82387 3.94821 6.13604 5.63604C4.44821 7.32387 3.5 9.61305 3.5 12C3.5 14.3869 4.44821 16.6761 6.13604 18.364C7.82387 20.0518 10.1131 21 12.5 21ZM11.283 7.99L16.927 11.126C17.0828 11.2126 17.2126 11.3393 17.303 11.493C17.3934 11.6467 17.4411 11.8217 17.4411 12C17.4411 12.1783 17.3934 12.3533 17.303 12.507C17.2126 12.6607 17.0828 12.7874 16.927 12.874L11.283 16.01C11.1002 16.1116 10.8941 16.1636 10.6851 16.161C10.476 16.1584 10.2712 16.1013 10.0911 15.9952C9.9109 15.8891 9.76159 15.7377 9.65791 15.5562C9.55424 15.3746 9.4998 15.1691 9.5 14.96V9.04C9.4998 8.83092 9.55424 8.62541 9.65791 8.44384C9.76159 8.26227 9.9109 8.11094 10.0911 8.00484C10.2712 7.89874 10.476 7.84156 10.6851 7.83895C10.8941 7.83635 11.1002 7.88842 11.283 7.99Z" fill="#F8F8F8"/>
</g>
</svg>
