<svg width="90" height="28" viewBox="0 0 90 28" fill="none" xmlns="http://www.w3.org/2000/svg">
<g id="Amazon_logo 1" clip-path="url(#clip0_2281_23287)">
<path id="path8" d="M55.8216 21.2217C50.5978 25.0721 43.0262 27.1264 36.5072 27.1264C27.3665 27.1264 19.1376 23.7456 12.912 18.1227C12.4229 17.6805 12.8612 17.0779 13.4481 17.4222C20.1667 21.3313 28.4739 23.683 37.055 23.683C42.8423 23.683 49.2087 22.4856 55.0625 20.0009C55.9468 19.6252 56.6864 20.58 55.8216 21.2217Z" fill="#FF9900"/>
<path id="path10" d="M57.9933 18.7366C57.3281 17.8836 53.5795 18.3336 51.897 18.5332C51.3844 18.5958 51.3061 18.1497 51.7678 17.8288C54.7534 15.7276 59.6524 16.3341 60.2237 17.0384C60.795 17.7466 60.075 22.6574 57.2694 25.0013C56.839 25.3613 56.4282 25.1695 56.6199 24.6922C57.2499 23.1191 58.6625 19.5936 57.9933 18.7366Z" fill="#FF9900"/>
<path id="path12" d="M52.0146 2.99511V0.952546C52.0146 0.643422 52.2493 0.436035 52.5311 0.436035H61.6757C61.9691 0.436035 62.2039 0.647335 62.2039 0.952546V2.70164C62.2 2.99511 61.9535 3.37858 61.5152 3.98509L56.7766 10.7506C58.5375 10.7076 60.3961 10.9697 61.9926 11.8697C62.3526 12.0732 62.4504 12.3706 62.4778 12.664V14.8436C62.4778 15.141 62.1491 15.4892 61.8048 15.3092C58.9914 13.834 55.2545 13.6736 52.1437 15.3249C51.8267 15.497 51.4941 15.1527 51.4941 14.8553V12.7853C51.4941 12.4527 51.4981 11.8854 51.8307 11.3806L57.3205 3.50771H52.5428C52.2493 3.50771 52.0146 3.30033 52.0146 2.99511Z" fill="#221F1F"/>
<path id="path14" d="M18.657 15.7396H15.8749C15.6088 15.72 15.3975 15.5205 15.3779 15.2661V0.987727C15.3779 0.70208 15.6166 0.475127 15.914 0.475127H18.5083C18.7783 0.486858 18.9935 0.694252 19.0131 0.952507V2.81899H19.0639C19.7409 1.01511 21.0126 0.173828 22.7265 0.173828C24.4677 0.173828 25.5555 1.01511 26.3381 2.81899C27.0112 1.01511 28.5411 0.173828 30.1807 0.173828C31.3467 0.173828 32.6223 0.655122 33.401 1.7351C34.2814 2.93638 34.1014 4.68156 34.1014 6.21153L34.0975 15.2231C34.0975 15.5087 33.8588 15.7396 33.5615 15.7396H30.7833C30.5054 15.72 30.2824 15.497 30.2824 15.2231V7.65541C30.2824 7.05282 30.3372 5.55024 30.2041 4.97895C29.9967 4.02027 29.3746 3.75028 28.5685 3.75028C27.8955 3.75028 27.1912 4.20027 26.9055 4.92025C26.6199 5.64024 26.6473 6.84543 26.6473 7.65541V15.2231C26.6473 15.5087 26.4086 15.7396 26.1112 15.7396H23.333C23.0512 15.72 22.8321 15.497 22.8321 15.2231L22.8282 7.65541C22.8282 6.06284 23.0904 3.71897 21.1143 3.71897C19.1148 3.71897 19.1931 6.00414 19.1931 7.65541V15.2231C19.1931 15.5087 18.9544 15.7396 18.657 15.7396Z" fill="#221F1F"/>
<path id="path16" d="M70.0771 0.173828C74.2053 0.173828 76.4396 3.71897 76.4396 8.22671C76.4396 12.5818 73.9705 16.037 70.0771 16.037C66.0233 16.037 63.8164 12.4918 63.8164 8.0741C63.8164 3.62898 66.0507 0.173828 70.0771 0.173828ZM70.1006 3.08899C68.0502 3.08899 67.9211 5.88284 67.9211 7.62411C67.9211 9.3693 67.8937 13.0944 70.0771 13.0944C72.2332 13.0944 72.3349 10.0893 72.3349 8.25801C72.3349 7.05282 72.2841 5.61285 71.9201 4.47026C71.6071 3.47637 70.985 3.08899 70.1006 3.08899Z" fill="#221F1F"/>
<path id="path18" d="M81.7918 15.7396H79.0214C78.7435 15.72 78.5205 15.497 78.5205 15.2231L78.5166 0.940769C78.5401 0.6786 78.7709 0.475127 79.0527 0.475127H81.6313C81.8739 0.486858 82.0735 0.65121 82.1283 0.874249V3.05768H82.1791C82.9578 1.10511 84.0495 0.173828 85.9708 0.173828C87.219 0.173828 88.436 0.623819 89.2186 1.8564C89.9464 2.99899 89.9464 4.92025 89.9464 6.30153V15.2896C89.9151 15.54 89.6842 15.7396 89.4103 15.7396H86.6203C86.366 15.72 86.1547 15.5322 86.1273 15.2896V7.53411C86.1273 5.97284 86.3073 3.68767 84.386 3.68767C83.7091 3.68767 83.0869 4.14157 82.7778 4.83025C82.3865 5.70285 82.3357 6.57152 82.3357 7.53411V15.2231C82.3317 15.5087 82.0891 15.7396 81.7918 15.7396Z" fill="#221F1F"/>
<path id="use28" d="M44.725 8.91906V8.31646C42.7137 8.31646 40.589 8.74689 40.589 11.1181C40.589 12.3194 41.2112 13.1333 42.2794 13.1333C43.062 13.1333 43.7624 12.652 44.2046 11.8694C44.7524 10.9068 44.725 10.0029 44.725 8.91906ZM47.5306 15.7002C47.3467 15.8646 47.0806 15.8763 46.8732 15.7668C45.9498 14.9998 45.7854 14.6437 45.2767 13.912C43.7507 15.4694 42.6707 15.935 40.6907 15.935C38.3508 15.935 36.5273 14.4911 36.5273 11.5994C36.5273 9.34166 37.7521 7.80386 39.4934 7.05257C41.0038 6.38737 43.1129 6.26998 44.725 6.08607V5.72608C44.725 5.06478 44.7759 4.28219 44.3885 3.7109C44.0481 3.1983 43.3985 2.987 42.8272 2.987C41.7668 2.987 40.8199 3.5309 40.589 4.65784C40.542 4.90827 40.3581 5.15478 40.1077 5.16652L37.4078 4.87696C37.1808 4.82609 36.9304 4.64218 36.993 4.29393C37.6151 1.02269 40.5694 0.0366211 43.2146 0.0366211C44.5685 0.0366211 46.3371 0.396614 47.4054 1.42181C48.7593 2.6857 48.6301 4.37219 48.6301 6.20737V10.5429C48.6301 11.846 49.1701 12.4172 49.6788 13.1216C49.8588 13.372 49.8979 13.6733 49.671 13.8611C49.1036 14.3346 48.0941 15.215 47.5384 15.7081L47.5306 15.7002Z" fill="#221F1F"/>
<path id="path30" d="M8.25235 8.91906V8.31646C6.24108 8.31646 4.11634 8.74689 4.11634 11.1181C4.11634 12.3194 4.7385 13.1333 5.80674 13.1333C6.58934 13.1333 7.28976 12.652 7.73192 11.8694C8.27974 10.9068 8.25235 10.0029 8.25235 8.91906ZM11.0579 15.7002C10.874 15.8646 10.608 15.8763 10.4006 15.7668C9.47711 14.9998 9.31276 14.6437 8.80407 13.912C7.27802 15.4694 6.19804 15.935 4.21808 15.935C1.87813 15.935 0.0546875 14.4911 0.0546875 11.5994C0.0546875 9.34166 1.27945 7.80386 3.02071 7.05257C4.53112 6.38737 6.64021 6.26998 8.25235 6.08607V5.72608C8.25235 5.06478 8.30322 4.28219 7.91583 3.7109C7.5754 3.1983 6.92585 2.987 6.35456 2.987C5.29415 2.987 4.34721 3.5309 4.11634 4.65784C4.06939 4.90827 3.88548 5.15478 3.63505 5.16652L0.935105 4.87696C0.708152 4.82609 0.457722 4.64218 0.52033 4.29393C1.14249 1.02269 4.09678 0.0366211 6.74194 0.0366211C8.09583 0.0366211 9.86449 0.396614 10.9327 1.42181C12.2866 2.6857 12.1575 4.37219 12.1575 6.20737V10.5429C12.1575 11.846 12.6975 12.4172 13.2062 13.1216C13.3862 13.372 13.4253 13.6733 13.1983 13.8611C12.631 14.3346 11.6214 15.215 11.0658 15.7081L11.0579 15.7002Z" fill="#221F1F"/>
</g>
<defs>
<clipPath id="clip0_2281_23287">
<rect width="90" height="27.1642" fill="white"/>
</clipPath>
</defs>
</svg>
