<svg width="116" height="15" viewBox="0 0 116 15" fill="none" xmlns="http://www.w3.org/2000/svg">
<path id="Vector" d="M49.9303 9.75102H57.5416L53.5212 3.25848L46.1297 14.985H42.7686L51.7582 0.916169C51.9542 0.63543 52.2146 0.405743 52.5176 0.24635C52.8206 0.086957 53.1574 0.00250012 53.4997 5.46645e-05C53.8421 -0.00239079 54.1801 0.0772464 54.4853 0.232295C54.7906 0.387343 55.0542 0.613287 55.2542 0.891198L64.2688 14.985H60.9077L59.3245 12.363H51.6234L49.9453 9.75102M84.8701 12.363V0.142058H82.0134V13.5666C82.0129 13.7532 82.0503 13.9379 82.1232 14.1096C82.1962 14.2813 82.3033 14.4364 82.4379 14.5655C82.5731 14.7038 82.7348 14.8136 82.9132 14.8882C83.0917 14.9629 83.2833 15.0009 83.4767 15H96.4618L98.1549 12.378H84.8551M37.6395 10.1805C38.9706 10.1805 40.2473 9.65171 41.1886 8.71042C42.1299 7.76913 42.6587 6.49247 42.6587 5.16129C42.6587 3.83011 42.1299 2.55345 41.1886 1.61216C40.2473 0.670869 38.9706 0.142058 37.6395 0.142058H25.1538V14.985H28.0055V2.76904H37.4646C38.1018 2.76904 38.7128 3.02213 39.1633 3.47264C39.6138 3.92315 39.8669 4.53417 39.8669 5.17128C39.8669 5.80839 39.6138 6.41941 39.1633 6.86992C38.7128 7.32043 38.1018 7.57352 37.4646 7.57352H29.4189L37.9391 14.985H42.0793L36.3559 10.1805H37.6395ZM7.61397 14.985H16.2391C18.1734 14.9348 20.0116 14.1311 21.3619 12.7453C22.7123 11.3594 23.468 9.50099 23.468 7.56603C23.468 5.63107 22.7123 3.77262 21.3619 2.38676C20.0116 1.00091 18.1734 0.197244 16.2391 0.147053H7.61397C6.6235 0.121352 5.63791 0.294242 4.71533 0.655525C3.79274 1.01681 2.95184 1.55917 2.24221 2.25063C1.53257 2.94209 0.968581 3.76864 0.583489 4.68154C0.198396 5.59445 0 6.57522 0 7.56603C0 8.55683 0.198396 9.5376 0.583489 10.4505C0.968581 11.3634 1.53257 12.19 2.24221 12.8814C2.95184 13.5729 3.79274 14.1152 4.71533 14.4765C5.63791 14.8378 6.6235 15.0107 7.61397 14.985ZM16.0443 12.373H7.80375C6.55699 12.3328 5.37475 11.8092 4.50703 10.9131C3.63932 10.0169 3.15416 8.81843 3.15416 7.57102C3.15416 6.32361 3.63932 5.12511 4.50703 4.22895C5.37475 3.33279 6.55699 2.80925 7.80375 2.76904H16.0443C16.6879 2.74828 17.3292 2.85712 17.9299 3.0891C18.5306 3.32108 19.0786 3.67146 19.5412 4.11942C20.0039 4.56737 20.3717 5.10376 20.623 5.69671C20.8742 6.28965 21.0036 6.92705 21.0036 7.57102C21.0036 8.21499 20.8742 8.85239 20.623 9.44534C20.3717 10.0383 20.0039 10.5747 19.5412 11.0226C19.0786 11.4706 18.5306 11.821 17.9299 12.0529C17.3292 12.2849 16.6879 12.3938 16.0443 12.373ZM70.227 14.985H79.0319L80.6999 12.373H70.4218C69.7781 12.3938 69.1369 12.2849 68.5361 12.0529C67.9354 11.821 67.3874 11.4706 66.9248 11.0226C66.4622 10.5747 66.0943 10.0383 65.8431 9.44534C65.5919 8.85239 65.4624 8.21499 65.4624 7.57102C65.4624 6.92705 65.5919 6.28965 65.8431 5.69671C66.0943 5.10376 66.4622 4.56737 66.9248 4.11942C67.3874 3.67146 67.9354 3.32108 68.5361 3.0891C69.1369 2.85712 69.7781 2.74828 70.4218 2.76904H78.7871L80.4752 0.147053H70.227C69.2365 0.121352 68.2509 0.294242 67.3283 0.655525C66.4057 1.01681 65.5648 1.55917 64.8552 2.25063C64.1456 2.94209 63.5816 3.76864 63.1965 4.68154C62.8114 5.59445 62.613 6.57522 62.613 7.56603C62.613 8.55683 62.8114 9.5376 63.1965 10.4505C63.5816 11.3634 64.1456 12.19 64.8552 12.8814C65.5648 13.5729 66.4057 14.1152 67.3283 14.4765C68.2509 14.8378 69.2365 15.0107 70.227 14.985ZM105.122 12.373C104.075 12.3734 103.058 12.0322 102.223 11.4012C101.388 10.7701 100.782 9.88387 100.497 8.87702H112.693L114.371 6.26003H100.497C100.781 5.25276 101.387 4.36602 102.222 3.73488C103.057 3.10375 104.075 2.76282 105.122 2.76405H113.492L115.165 0.142058H104.927C102.993 0.192249 101.155 0.995913 99.8042 2.38177C98.4538 3.76762 97.6981 5.62607 97.6981 7.56103C97.6981 9.49599 98.4538 11.3544 99.8042 12.7403C101.155 14.1262 102.993 14.9298 104.927 14.98H113.732L115.405 12.368H105.117" fill="#C74634"/>
</svg>
