<svg xmlns="http://www.w3.org/2000/svg" width="90" height="43" viewBox="0 0 90 43" fill="none">
  <path d="M34.978 29.71L36.436 40.158C36.722 42.21 38.341 42.826 39.648 41.381L47.878 32.283" fill="#011843"/>
  <path d="M77.685 34.7219H6.678C2.6 34.7219 -0.412008 30.9189 0.521992 26.9499L5.54598 5.59793C6.21798 2.74093 8.76698 0.721924 11.702 0.721924H82.709C86.787 0.721924 89.799 4.52493 88.865 8.49393L83.841 29.8459C83.168 32.7029 80.619 34.7219 77.685 34.7219Z" fill="#011843"/>
  <path d="M69.568 31.3469H74.395C77.342 31.3469 79.914 29.3459 80.637 26.4889L82.234 20.1809" stroke="white" stroke-width="0.6645" stroke-miterlimit="10" stroke-linecap="round" stroke-linejoin="round"/>
  <path d="M83.011 17.061C83.178 16.311 83.345 15.561 83.512 14.811" stroke="white" stroke-width="0.6645" stroke-miterlimit="10" stroke-linecap="round" stroke-linejoin="round"/>
  <path d="M16.86 7.55493H77.96" stroke="white" stroke-width="0.6645" stroke-miterlimit="10" stroke-linecap="round" stroke-linejoin="round"/>
  <path d="M14.36 15.5549H54.372" stroke="white" stroke-width="0.6645" stroke-miterlimit="10" stroke-linecap="round" stroke-linejoin="round"/>
  <path d="M12.36 22.5549H64.403" stroke="white" stroke-width="0.6645" stroke-miterlimit="10" stroke-linecap="round" stroke-linejoin="round"/>
</svg>