<svg xmlns="http://www.w3.org/2000/svg" width="76" height="55" viewBox="0 0 76 55" fill="none">
  <path d="M61.521 46.1429H10.43C4.513 46.1429 0.0279933 40.8049 1.04799 34.9759L5.622 8.84391C6.42 4.28591 10.377 0.961914 15.004 0.961914H66.095C72.012 0.961914 76.497 6.29991 75.477 12.1289L70.903 38.2609C70.105 42.8179 66.148 46.1429 61.521 46.1429Z" fill="#1054D7"/>
  <path d="M47.36 42.3879H57.769C61.761 42.3879 65.235 39.6999 66.285 35.8479C67.199 32.4959 67.54 29.1909 68.359 26.0549" stroke="white" stroke-width="0.6645" stroke-miterlimit="10" stroke-linecap="round" stroke-linejoin="round"/>
  <path d="M26.407 43.4L31.41 53.238C32.393 55.17 34.648 55.4 35.886 53.695L43.682 42.957" fill="#1054D7"/>
  <path d="M23.633 25.265C25.1159 25.265 26.318 24.0629 26.318 22.58C26.318 21.0971 25.1159 19.895 23.633 19.895C22.1501 19.895 20.948 21.0971 20.948 22.58C20.948 24.0629 22.1501 25.265 23.633 25.265Z" stroke="white" stroke-width="0.6645" stroke-miterlimit="10"/>
  <path d="M40.947 22.58C40.947 24.063 39.745 25.265 38.262 25.265C36.779 25.265 35.577 24.063 35.577 22.58C35.577 21.097 36.779 19.895 38.262 19.895C39.745 19.895 40.947 21.098 40.947 22.58Z" stroke="white" stroke-width="0.6645" stroke-miterlimit="10"/>
  <path d="M52.893 25.265C54.3759 25.265 55.578 24.0629 55.578 22.58C55.578 21.0971 54.3759 19.895 52.893 19.895C51.4101 19.895 50.208 21.0971 50.208 22.58C50.208 24.0629 51.4101 25.265 52.893 25.265Z" stroke="white" stroke-width="0.6645" stroke-miterlimit="10"/>
  <path d="M69.226 22.0618C69.499 20.7828 69.772 19.5039 70.045 18.2249" stroke="white" stroke-width="0.6645" stroke-miterlimit="10" stroke-linecap="round" stroke-linejoin="round"/>
</svg>