<svg xmlns="http://www.w3.org/2000/svg" width="49" height="34" viewBox="0 0 49 34" fill="none">
  <path d="M27.438 31.0483L27.519 30.9893C27.916 30.7003 28.003 30.1433 27.714 29.7473L23.167 23.5063C22.878 23.1093 22.322 23.0223 21.925 23.3113C19.309 25.2173 15.643 24.6413 13.737 22.0253L8.86198 15.3343C6.95598 12.7183 7.53198 9.05229 10.148 7.14629C10.545 6.85729 10.632 6.30129 10.343 5.90429L6.67998 0.876289C6.39098 0.479289 5.83499 0.39229 5.43799 0.68129L5.35698 0.740292C-0.00402164 4.64629 -1.18402 12.1583 2.72198 17.5203L10.659 28.4153C14.564 33.7743 22.076 34.9543 27.438 31.0483Z" fill="#011843"/>
</svg>