<svg xmlns="http://www.w3.org/2000/svg" width="24" height="25" viewBox="0 0 24 25" fill="none">
  <path d="M19.7059 17.0332L16.055 13.7137C15.8824 13.5568 15.6557 13.4732 15.4226 13.4804C15.1895 13.4876 14.9683 13.5851 14.8057 13.7523L12.6565 15.9626C12.1392 15.8638 11.0991 15.5396 10.0285 14.4717C8.95796 13.4002 8.63373 12.3575 8.53763 11.8438L10.7461 9.69364C10.9136 9.53119 11.0112 9.30998 11.0184 9.07681C11.0256 8.84364 10.9418 8.61681 10.7848 8.44433L7.46616 4.79431C7.30902 4.62129 7.09063 4.51634 6.85736 4.50175C6.62409 4.48716 6.39432 4.56408 6.21685 4.71617L4.2679 6.3876C4.11262 6.54344 4.01994 6.75085 4.00744 6.97049C3.99397 7.19503 3.7371 12.5138 7.86134 16.6398C11.4593 20.2368 15.9661 20.5 17.2073 20.5C17.3888 20.5 17.5001 20.4946 17.5298 20.4928C17.7494 20.4805 17.9567 20.3874 18.1118 20.2315L19.7823 18.2816C19.935 18.1047 20.0125 17.8751 19.9982 17.6419C19.9839 17.4086 19.8791 17.1902 19.7059 17.0332Z" fill="#646464"/>
</svg>