<svg xmlns="http://www.w3.org/2000/svg" width="24" height="25" viewBox="0 0 24 25" fill="none">
  <path fill-rule="evenodd" clip-rule="evenodd" d="M2.234 4.857C2.08251 5.03698 1.99962 5.26476 2 5.5V17.5C2 18.2957 2.31607 19.0587 2.87868 19.6213C3.44129 20.1839 4.20435 20.5 5 20.5H19C19.7957 20.5 20.5587 20.1839 21.1213 19.6213C21.6839 19.0587 22 18.2957 22 17.5V5.51C22.001 5.36099 21.9688 5.21362 21.9059 5.07856C21.8429 4.94349 21.7507 4.8241 21.636 4.729C21.4582 4.58174 21.2348 4.50079 21.004 4.5H3C2.85397 4.49978 2.70967 4.53164 2.5773 4.59332C2.44494 4.65501 2.32774 4.74503 2.234 4.857ZM4 7.914V17.5C4 17.7652 4.10536 18.0196 4.29289 18.2071C4.48043 18.3946 4.73478 18.5 5 18.5H19C19.2652 18.5 19.5196 18.3946 19.7071 18.2071C19.8946 18.0196 20 17.7652 20 17.5V7.914L12.707 15.207C12.5195 15.3945 12.2652 15.4998 12 15.4998C11.7348 15.4998 11.4805 15.3945 11.293 15.207L4 7.914Z" fill="#646464"/>
</svg>