<svg width="465" height="439" viewBox="0 0 465 439" fill="none" xmlns="http://www.w3.org/2000/svg">
<path d="M411.978 197.997C412.326 212.42 410.793 226.965 407.202 241.299C394.047 293.805 353.198 342.529 301.28 361.865C221.271 391.663 144.722 351.116 97.39 287.351C60.278 237.353 65.03 161.698 97.004 110.283C100.35 104.903 104.015 99.7149 107.993 94.7649C163.889 25.2029 278.127 6.7929 348.058 66.3879C387.017 99.5889 410.773 148.062 411.978 197.997Z" fill="#A3B7D3"/>
<path d="M265.522 165.333H341.36C354.218 165.333 364.251 176.454 362.924 189.244C360.783 209.887 353.993 240.203 351.126 264.954C348.617 286.614 330.277 302.951 308.472 302.951H239.96L265.522 165.333Z" fill="#1054D7"/>
<path d="M256.072 165.333H328.324C341.182 165.333 351.215 176.454 349.888 189.244C347.747 209.887 344.542 228.587 341.675 253.338C339.166 274.998 320.826 291.336 299.021 291.336H230.51L256.072 165.333Z" fill="#054BAF"/>
<path d="M291.511 303.763H282.651V415.172H291.511V303.763Z" fill="#011843"/>
<path d="M307.52 306.405H261.326C259.709 306.405 258.398 305.094 258.398 303.477V302.885H310.448V303.477C310.448 305.094 309.137 306.405 307.52 306.405Z" fill="#011843"/>
<path d="M250.757 425.656C250.757 419.295 255.913 414.139 262.274 414.139H315.431C321.792 414.139 326.948 419.295 326.948 425.656V426.108" stroke="#011843" stroke-width="2.6579" stroke-miterlimit="10" stroke-linecap="round" stroke-linejoin="round"/>
<path d="M305.796 425.545V414.027" stroke="#011843" stroke-width="2.6579" stroke-miterlimit="10"/>
<path d="M271.244 425.545V414.027" stroke="#011843" stroke-width="2.6579" stroke-miterlimit="10"/>
<path d="M251.67 431.261C254.665 431.261 257.092 428.833 257.092 425.839C257.092 422.845 254.665 420.417 251.67 420.417C248.676 420.417 246.248 422.845 246.248 425.839C246.248 428.833 248.676 431.261 251.67 431.261Z" fill="#011843"/>
<path d="M251.67 427.589C252.637 427.589 253.42 426.805 253.42 425.839C253.42 424.872 252.637 424.089 251.67 424.089C250.704 424.089 249.92 424.872 249.92 425.839C249.92 426.805 250.704 427.589 251.67 427.589Z" stroke="white" stroke-width="0.8184" stroke-miterlimit="10" stroke-linecap="round" stroke-linejoin="round"/>
<path d="M271.67 431.261C274.665 431.261 277.092 428.833 277.092 425.839C277.092 422.845 274.665 420.417 271.67 420.417C268.676 420.417 266.248 422.845 266.248 425.839C266.248 428.833 268.676 431.261 271.67 431.261Z" fill="#011843"/>
<path d="M271.67 427.589C272.637 427.589 273.42 426.805 273.42 425.839C273.42 424.872 272.637 424.089 271.67 424.089C270.704 424.089 269.92 424.872 269.92 425.839C269.92 426.805 270.704 427.589 271.67 427.589Z" stroke="white" stroke-width="0.8184" stroke-miterlimit="10" stroke-linecap="round" stroke-linejoin="round"/>
<path d="M306.795 431.261C309.79 431.261 312.217 428.833 312.217 425.839C312.217 422.845 309.79 420.417 306.795 420.417C303.801 420.417 301.373 422.845 301.373 425.839C301.373 428.833 303.801 431.261 306.795 431.261Z" fill="#011843"/>
<path d="M306.795 427.589C307.762 427.589 308.545 426.805 308.545 425.839C308.545 424.872 307.762 424.089 306.795 424.089C305.829 424.089 305.045 424.872 305.045 425.839C305.045 426.805 305.829 427.589 306.795 427.589Z" stroke="white" stroke-width="0.8184" stroke-miterlimit="10" stroke-linecap="round" stroke-linejoin="round"/>
<path d="M326.795 431.261C329.79 431.261 332.217 428.833 332.217 425.839C332.217 422.845 329.79 420.417 326.795 420.417C323.801 420.417 321.373 422.845 321.373 425.839C321.373 428.833 323.801 431.261 326.795 431.261Z" fill="#011843"/>
<path d="M326.795 427.589C327.762 427.589 328.545 426.805 328.545 425.839C328.545 424.872 327.762 424.089 326.795 424.089C325.829 424.089 325.045 424.872 325.045 425.839C325.045 426.805 325.829 427.589 326.795 427.589Z" stroke="white" stroke-width="0.8184" stroke-miterlimit="10" stroke-linecap="round" stroke-linejoin="round"/>
<path d="M150.643 252.526L160.875 429.833C160.889 432.474 157.313 432.609 157.161 429.973L137.685 252.545" fill="white"/>
<path d="M137.686 252.489L150.65 252.539L138.388 258.746L137.686 252.489Z" fill="#011843"/>
<path d="M232.474 438.974C360.74 438.974 464.72 437.218 464.72 435.051C464.72 432.884 360.74 431.128 232.474 431.128C104.208 431.128 0.228027 432.884 0.228027 435.051C0.228027 437.218 104.208 438.974 232.474 438.974Z" fill="#A3B7D3"/>
<path d="M235.912 80.0421C239.253 66.052 230.621 52.0019 216.631 48.6605C202.641 45.319 188.591 53.9515 185.249 67.9416C181.908 81.9317 190.54 95.9817 204.53 99.3232C218.52 102.665 232.57 94.0322 235.912 80.0421Z" fill="#F4F4F4"/>
<path d="M376.806 213.305C375.529 213.305 374.561 214.457 374.78 215.715L378.235 235.534C378.854 238.042 381.104 239.805 383.687 239.805H392.864C395.492 239.805 397.768 237.983 398.343 235.419L401.041 215.64C401.209 214.405 400.25 213.306 399.003 213.306H376.806V213.305Z" fill="#011843"/>
<path d="M380.693 225.722C380.693 228.668 378.305 231.055 375.36 231.055C372.415 231.055 370.027 228.667 370.027 225.722C370.027 222.776 372.415 220.389 375.36 220.389C378.305 220.389 380.693 222.776 380.693 225.722Z" stroke="#011843" stroke-width="2" stroke-miterlimit="10" stroke-linecap="round" stroke-linejoin="round"/>
<path d="M393.235 213.247C392.902 211.039 393.429 208.789 394.721 207.217C395.881 205.805 397.38 204.679 398.181 202.999C399.1 201.073 399.381 198.875 399.002 196.776C398.588 194.481 397.357 192.17 395.483 190.743C392.951 188.815 389.907 189.189 386.911 189.029C386.518 189.008 386.125 188.981 385.735 188.929C381.107 188.308 379.485 184.929 376.76 180.005C376.276 182.392 375.79 184.814 375.969 187.243C376.148 189.671 377.08 192.149 378.979 193.674C382.161 196.229 386.925 194.133 390.298 196.429C391.196 197.04 392.356 198.548 392.548 199.617C392.897 201.563 390.985 204.305 389.085 204.789C387.169 205.277 385.22 205.091 383.53 206.117C381.84 207.143 381.277 209.369 381.277 211.346C381.277 212.471 381.319 213.246 381.319 213.246" fill="#F4F4F4"/>
<path d="M376.027 221.555L400.11 221.638" stroke="white" stroke-width="0.8184" stroke-miterlimit="10" stroke-linecap="round" stroke-linejoin="round"/>
<path d="M377.443 229.138H398.943" stroke="white" stroke-width="0.8184" stroke-miterlimit="10" stroke-linecap="round" stroke-linejoin="round"/>
<path d="M397.112 232.063C397.505 228.003 397.899 223.942 398.292 219.882" stroke="white" stroke-width="0.8184" stroke-miterlimit="10" stroke-linecap="round" stroke-linejoin="round"/>
<path d="M132.36 39.5549C133.741 39.5549 134.86 38.4356 134.86 37.0549C134.86 35.6742 133.741 34.5549 132.36 34.5549C130.979 34.5549 129.86 35.6742 129.86 37.0549C129.86 38.4356 130.979 39.5549 132.36 39.5549Z" stroke="#1054D7" stroke-miterlimit="10"/>
<path d="M151.36 39.5549C152.741 39.5549 153.86 38.4356 153.86 37.0549C153.86 35.6742 152.741 34.5549 151.36 34.5549C149.979 34.5549 148.86 35.6742 148.86 37.0549C148.86 38.4356 149.979 39.5549 151.36 39.5549Z" stroke="#1054D7" stroke-miterlimit="10"/>
<path d="M141.36 39.5549C142.741 39.5549 143.86 38.4356 143.86 37.0549C143.86 35.6742 142.741 34.5549 141.36 34.5549C139.979 34.5549 138.86 35.6742 138.86 37.0549C138.86 38.4356 139.979 39.5549 141.36 39.5549Z" stroke="#011843" stroke-miterlimit="10"/>
<path d="M282.36 18.0549H211.693C206.722 18.0549 202.693 14.0259 202.693 9.05493C202.693 4.08393 206.722 0.0549316 211.693 0.0549316H282.36C287.331 0.0549316 291.36 4.08393 291.36 9.05493C291.36 14.0259 287.331 18.0549 282.36 18.0549Z" fill="#1054D7"/>
<path d="M219.814 5.05282L220.928 7.30982C220.973 7.39982 221.059 7.46282 221.158 7.47682L223.649 7.83882C223.899 7.87482 223.999 8.18282 223.818 8.35982L222.015 10.1168C221.943 10.1868 221.91 10.2878 221.927 10.3868L222.353 12.8678C222.396 13.1168 222.134 13.3078 221.91 13.1898L219.682 12.0178C219.593 11.9708 219.487 11.9708 219.398 12.0178L217.17 13.1898C216.946 13.3078 216.684 13.1178 216.727 12.8678L217.153 10.3868C217.17 10.2878 217.137 10.1868 217.065 10.1168L215.262 8.35982C215.081 8.18282 215.181 7.87582 215.431 7.83882L217.922 7.47682C218.021 7.46282 218.107 7.39982 218.152 7.30982L219.266 5.05282C219.378 4.82582 219.702 4.82582 219.814 5.05282Z" fill="#F4F4F4"/>
<path d="M233.557 5.05282L234.671 7.30982C234.716 7.39982 234.801 7.46282 234.901 7.47682L237.392 7.83882C237.642 7.87482 237.742 8.18282 237.561 8.35982L235.758 10.1168C235.686 10.1868 235.653 10.2878 235.67 10.3868L236.096 12.8678C236.139 13.1168 235.877 13.3078 235.653 13.1898L233.425 12.0178C233.336 11.9708 233.23 11.9708 233.141 12.0178L230.913 13.1898C230.689 13.3078 230.427 13.1178 230.47 12.8678L230.895 10.3868C230.912 10.2878 230.879 10.1868 230.807 10.1168L229.004 8.35982C228.823 8.18282 228.923 7.87582 229.173 7.83882L231.664 7.47682C231.764 7.46282 231.85 7.39982 231.894 7.30982L233.008 5.05282C233.122 4.82582 233.445 4.82582 233.557 5.05282Z" fill="#F4F4F4"/>
<path d="M247.301 5.05282L248.415 7.30982C248.46 7.39982 248.546 7.46282 248.645 7.47682L251.136 7.83882C251.386 7.87482 251.486 8.18282 251.305 8.35982L249.502 10.1168C249.43 10.1868 249.397 10.2878 249.414 10.3868L249.84 12.8678C249.883 13.1168 249.621 13.3078 249.397 13.1898L247.169 12.0178C247.08 11.9708 246.974 11.9708 246.885 12.0178L244.657 13.1898C244.433 13.3078 244.171 13.1178 244.214 12.8678L244.64 10.3868C244.657 10.2878 244.624 10.1868 244.552 10.1168L242.749 8.35982C242.568 8.18282 242.668 7.87582 242.918 7.83882L245.409 7.47682C245.508 7.46282 245.594 7.39982 245.639 7.30982L246.753 5.05282C246.865 4.82582 247.189 4.82582 247.301 5.05282Z" fill="#F4F4F4"/>
<path d="M261.044 5.05282L262.158 7.30982C262.202 7.39982 262.288 7.46282 262.388 7.47682L264.879 7.83882C265.129 7.87482 265.229 8.18282 265.048 8.35982L263.245 10.1168C263.173 10.1868 263.14 10.2878 263.157 10.3868L263.583 12.8678C263.626 13.1168 263.364 13.3078 263.14 13.1898L260.912 12.0178C260.823 11.9708 260.717 11.9708 260.628 12.0178L258.4 13.1898C258.176 13.3078 257.914 13.1178 257.957 12.8678L258.383 10.3868C258.4 10.2878 258.367 10.1868 258.295 10.1168L256.492 8.35982C256.311 8.18282 256.411 7.87582 256.661 7.83882L259.152 7.47682C259.251 7.46282 259.337 7.39982 259.382 7.30982L260.496 5.05282C260.608 4.82582 260.932 4.82582 261.044 5.05282Z" fill="#F4F4F4"/>
<path d="M274.787 5.05282L275.901 7.30982C275.945 7.39982 276.031 7.46282 276.131 7.47682L278.622 7.83882C278.872 7.87482 278.972 8.18282 278.791 8.35982L276.988 10.1168C276.916 10.1868 276.883 10.2878 276.9 10.3868L277.326 12.8678C277.369 13.1168 277.107 13.3078 276.883 13.1898L274.655 12.0178C274.566 11.9708 274.46 11.9708 274.371 12.0178L272.143 13.1898C271.919 13.3078 271.657 13.1178 271.7 12.8678L272.126 10.3868C272.143 10.2878 272.11 10.1868 272.038 10.1168L270.235 8.35982C270.054 8.18282 270.154 7.87582 270.404 7.83882L272.895 7.47682C272.994 7.46282 273.08 7.39982 273.125 7.30982L274.239 5.05282C274.351 4.82582 274.675 4.82582 274.787 5.05282Z" fill="#F4F4F4"/>
<path d="M71.0731 251.15L50.1531 429.705C49.9901 432.34 53.5521 432.717 53.8521 430.097L84.0141 252.03" fill="white"/>
<path d="M70.9071 252.489L84.2041 252.539L70.1691 258.579L70.9071 252.489Z" fill="#011843"/>
<path d="M423.859 251.15L444.779 431.388C444.942 434.023 441.38 434.4 441.08 431.779L410.918 252.029" fill="white"/>
<path d="M410.927 252.489H424.106L412.071 258.949L410.927 252.489Z" fill="#011843"/>
<path d="M343.82 252.489L334.397 429.416C334.383 432.057 337.959 432.192 338.111 429.556L356.999 252.49" fill="white"/>
<path d="M343.82 252.489H356.998L343.524 258.949L343.82 252.489Z" fill="#011843"/>
<path d="M437.39 239.894H49.374V252.536H437.39V239.894Z" fill="#5C9EFF"/>
<path d="M285.442 239.894H38.972V252.536H285.442V239.894Z" fill="#1054D7"/>
<path d="M204.36 158.388C204.36 160.229 202.868 161.721 201.027 161.721C199.186 161.721 197.694 160.229 197.694 158.388C197.694 156.547 199.186 155.055 201.027 155.055C202.868 155.055 204.36 156.547 204.36 158.388Z" stroke="white" stroke-width="0.8184" stroke-miterlimit="10"/>
<path d="M296.027 84.3879C296.027 86.2289 294.535 87.7209 292.694 87.7209C290.853 87.7209 289.361 86.2289 289.361 84.3879C289.361 82.5469 290.853 81.0549 292.694 81.0549C294.534 81.0549 296.027 82.5469 296.027 84.3879Z" stroke="white" stroke-width="0.8184" stroke-miterlimit="10"/>
<path d="M377.36 154.055C377.36 155.896 375.868 157.388 374.027 157.388C372.186 157.388 370.694 155.896 370.694 154.055C370.694 152.214 372.186 150.722 374.027 150.722C375.868 150.722 377.36 152.214 377.36 154.055Z" stroke="white" stroke-width="0.8184" stroke-miterlimit="10"/>
<path d="M137.36 168.388C139.201 168.388 140.693 166.896 140.693 165.055C140.693 163.214 139.201 161.722 137.36 161.722C135.519 161.722 134.027 163.214 134.027 165.055C134.027 166.896 135.519 168.388 137.36 168.388Z" stroke="white" stroke-width="0.8184" stroke-miterlimit="10"/>
<path d="M167.753 150.109C167.753 151.368 166.732 152.389 165.473 152.389C164.214 152.389 163.193 151.368 163.193 150.109C163.193 148.85 164.214 147.829 165.473 147.829C166.732 147.829 167.753 148.85 167.753 150.109Z" stroke="white" stroke-width="0.8184" stroke-miterlimit="10"/>
<path d="M222.693 129.722C222.693 130.981 221.672 132.002 220.413 132.002C219.154 132.002 218.133 130.981 218.133 129.722C218.133 128.463 219.154 127.442 220.413 127.442C221.672 127.442 222.693 128.463 222.693 129.722Z" stroke="white" stroke-width="0.8184" stroke-miterlimit="10"/>
<path d="M164.027 75.3882C164.027 76.6472 163.006 77.6682 161.747 77.6682C160.488 77.6682 159.467 76.6472 159.467 75.3882C159.467 74.1292 160.488 73.1082 161.747 73.1082C163.006 73.1092 164.027 74.1292 164.027 75.3882Z" stroke="white" stroke-width="0.8184" stroke-miterlimit="10"/>
<path d="M347.36 152.388C347.36 153.647 346.339 154.668 345.08 154.668C343.821 154.668 342.8 153.647 342.8 152.388C342.8 151.129 343.821 150.108 345.08 150.108C346.339 150.108 347.36 151.129 347.36 152.388Z" stroke="white" stroke-width="0.8184" stroke-miterlimit="10"/>
<path d="M86.027 185.722C86.027 186.981 85.006 188.002 83.747 188.002C82.488 188.002 81.467 186.981 81.467 185.722C81.467 184.463 82.488 183.442 83.747 183.442C85.006 183.442 86.027 184.463 86.027 185.722Z" stroke="white" stroke-width="0.8184" stroke-miterlimit="10"/>
<path d="M176.491 114.59V107.52" stroke="white" stroke-width="0.8184" stroke-miterlimit="10" stroke-linecap="round" stroke-linejoin="round"/>
<path d="M172.956 111.055H180.027" stroke="white" stroke-width="0.8184" stroke-miterlimit="10" stroke-linecap="round" stroke-linejoin="round"/>
<path d="M255.158 55.257V48.186" stroke="white" stroke-width="0.8184" stroke-miterlimit="10" stroke-linecap="round" stroke-linejoin="round"/>
<path d="M251.622 51.7219H258.693" stroke="white" stroke-width="0.8184" stroke-miterlimit="10" stroke-linecap="round" stroke-linejoin="round"/>
<path d="M319.158 149.924V142.853" stroke="white" stroke-width="0.8184" stroke-miterlimit="10" stroke-linecap="round" stroke-linejoin="round"/>
<path d="M315.622 146.388H322.693" stroke="white" stroke-width="0.8184" stroke-miterlimit="10" stroke-linecap="round" stroke-linejoin="round"/>
<path d="M91.824 218.59V211.52" stroke="white" stroke-width="0.8184" stroke-miterlimit="10" stroke-linecap="round" stroke-linejoin="round"/>
<path d="M88.2891 215.055H95.3601" stroke="white" stroke-width="0.8184" stroke-miterlimit="10" stroke-linecap="round" stroke-linejoin="round"/>
<path d="M123.158 273.257V266.186" stroke="white" stroke-width="0.8184" stroke-miterlimit="10" stroke-linecap="round" stroke-linejoin="round"/>
<path d="M119.622 269.722H126.693" stroke="white" stroke-width="0.8184" stroke-miterlimit="10" stroke-linecap="round" stroke-linejoin="round"/>
<path d="M212.891 396.886C212.306 393.148 210.363 388.197 209.53 384.506C209.995 384.216 227.641 377.612 232.025 376.233L236.806 396.38" fill="#F2CCB7"/>
<path d="M215.154 279.788H208.025C208.025 279.788 217.86 300.055 225.86 323.555C238.089 359.478 240.776 378.708 240.776 378.708L191.669 389.972L159.653 274.188C159.653 274.188 154.052 260.949 162.199 252.293H232.974L215.154 279.788Z" fill="#011843"/>
<path d="M237.175 396.065L243.428 431.176H226.472L223.886 418.595L215.397 431.176H184.784L184.725 429.142C184.633 424.937 187.397 421.169 191.463 420.089C199.459 417.966 209.948 412.54 212.77 396.838" fill="#011843"/>
<path d="M212.299 408.608C211.481 407.678 210.662 406.748 209.844 405.819C211.755 405.458 213.19 404.622 215.102 404.261C213.69 403.503 212.028 402.553 210.616 401.794C212.396 401.112 215.857 399.532 215.857 399.532" stroke="white" stroke-miterlimit="10" stroke-linecap="round" stroke-linejoin="round"/>
<path d="M152.043 390.863C152.043 390.863 160.12 378.089 162.411 375.078C162.932 375.248 179.333 384.522 183.207 386.994L170.845 403.606" fill="#F2CCB7"/>
<path d="M174.094 400.044L160.096 432.845L145.909 423.558L150.636 411.616L136.643 417.493L111.03 400.726L112.095 398.992C114.321 395.423 118.698 393.785 122.691 395.108C130.544 397.711 142.291 398.916 153.253 387.324" fill="#011843"/>
<path d="M147.678 397.23C146.888 395.821 146.179 394.366 145.557 392.875C147.67 393.194 149.742 393.597 151.856 393.916C151.118 392.2 150.252 390.276 149.514 388.56C151.404 389.334 153.312 389.927 155.202 390.701" stroke="white" stroke-miterlimit="10" stroke-linecap="round" stroke-linejoin="round"/>
<path d="M274.616 284.225H290.932C302.526 284.225 314.397 278.609 315.359 267.055C316.026 259.055 311.924 252.293 311.924 252.293H230.937C230.937 252.293 202.093 278.344 179.359 308.555C150.435 346.991 141.102 365.013 141.102 365.013L189.075 393.862L261.159 291.219C264.239 286.835 269.26 284.225 274.616 284.225Z" fill="#00BAD0"/>
<path d="M184.862 390.296C209.791 356.89 233.807 320.606 258.339 286.361C261.447 282.023 266.739 279.791 272.073 279.646L303.498 278.792" stroke="#011843" stroke-width="0.886" stroke-miterlimit="10" stroke-linecap="round" stroke-linejoin="round"/>
<path d="M151.314 354.154L197.018 381.868" stroke="#011843" stroke-width="0.886" stroke-miterlimit="10" stroke-linecap="round" stroke-linejoin="round"/>
<path d="M226.074 267.099C228.486 264.513 230.898 261.928 233.31 259.342" stroke="#011843" stroke-width="0.886" stroke-miterlimit="10" stroke-linecap="round" stroke-linejoin="round"/>
<path d="M232.386 264.069C230.872 266.938 229.633 269.951 228.689 273.054" stroke="#011843" stroke-width="0.886" stroke-miterlimit="10" stroke-linecap="round" stroke-linejoin="round"/>
<path d="M149.783 362.5C154.135 356.346 158.486 350.193 162.838 344.039" stroke="#011843" stroke-width="0.886" stroke-miterlimit="10" stroke-linecap="round" stroke-linejoin="round"/>
<path d="M316.93 178.146C316.646 170.807 315.323 165.405 309.481 159.72C307.277 157.575 304.574 155.168 301.675 153.714C297.454 151.598 291.964 150.762 287.94 148.852L281.984 141.559L270.63 142.611L262.739 141.032C257.603 150.946 240.311 151.417 231.778 159.72C225.936 165.406 224.612 170.808 224.329 178.146C223.588 197.312 226.192 239.895 226.192 239.895H265.105H276.156H312.252C312.249 239.894 317.671 197.312 316.93 178.146Z" fill="#F4F4F4"/>
<g opacity="0.44">
<mask id="mask0_30_4152" style="mask-type:luminance" maskUnits="userSpaceOnUse" x="224" y="140" width="115" height="100">
<path d="M338.135 220.277C335.161 208.56 331.437 196.715 327.139 186.282C323.88 178.372 320.165 170.527 314.69 163.953C309.407 157.61 302.29 152.502 294.216 150.888C291.991 150.229 289.806 149.575 287.939 148.688L281.983 141.395L270.629 142.447L262.738 140.868C257.602 150.782 240.31 151.252 231.777 159.556C225.934 165.242 224.611 170.644 224.328 177.982C223.587 197.148 226.191 239.731 226.191 239.731H265.104H276.155H312.251C312.251 239.731 312.358 238.893 312.539 237.401C316.195 237.669 319.768 237.929 323.098 238.171C332.896 238.886 340.552 229.801 338.135 220.277Z" fill="white"/>
</mask>
<g mask="url(#mask0_30_4152)">
<path d="M314.843 251.888V141.032" stroke="#B0BFD6" stroke-width="0.9724" stroke-miterlimit="10" stroke-linecap="round" stroke-linejoin="round"/>
<path d="M296.431 249.294V141.032" stroke="#B0BFD6" stroke-width="0.9724" stroke-miterlimit="10" stroke-linecap="round" stroke-linejoin="round"/>
<path d="M278.02 252.212V141.032" stroke="#B0BFD6" stroke-width="0.9724" stroke-miterlimit="10" stroke-linecap="round" stroke-linejoin="round"/>
<path d="M259.544 245.729L259.674 141.032" stroke="#B0BFD6" stroke-width="0.9724" stroke-miterlimit="10" stroke-linecap="round" stroke-linejoin="round"/>
<path d="M241.198 253.214V141.032" stroke="#B0BFD6" stroke-width="0.9724" stroke-miterlimit="10" stroke-linecap="round" stroke-linejoin="round"/>
<path d="M211.118 165.666H333.319" stroke="#B0BFD6" stroke-width="0.9724" stroke-miterlimit="10" stroke-linecap="round" stroke-linejoin="round"/>
<path d="M211.118 182.197H333.319" stroke="#B0BFD6" stroke-width="0.9724" stroke-miterlimit="10" stroke-linecap="round" stroke-linejoin="round"/>
<path d="M211.118 199.377H333.319" stroke="#B0BFD6" stroke-width="0.9724" stroke-miterlimit="10" stroke-linecap="round" stroke-linejoin="round"/>
<path d="M211.118 216.556L333.319 217.529" stroke="#B0BFD6" stroke-width="0.9724" stroke-miterlimit="10" stroke-linecap="round" stroke-linejoin="round"/>
<path d="M211.118 233.736H333.319" stroke="#B0BFD6" stroke-width="0.9724" stroke-miterlimit="10" stroke-linecap="round" stroke-linejoin="round"/>
</g>
</g>
<path d="M236.61 202.558C237.394 212.337 238.842 224.067 240.381 233.756" stroke="#011843" stroke-width="0.886" stroke-miterlimit="10" stroke-linecap="round" stroke-linejoin="round"/>
<path d="M266.713 151.853L270.875 159.057" stroke="#011843" stroke-width="0.886" stroke-miterlimit="10" stroke-linecap="round" stroke-linejoin="round"/>
<path d="M266.667 151.89L261.481 158.008L256.781 148.446" stroke="#011843" stroke-width="0.886" stroke-miterlimit="10" stroke-linecap="round" stroke-linejoin="round"/>
<path d="M270.929 158.955L286.683 149.419" stroke="#011843" stroke-width="0.886" stroke-miterlimit="10" stroke-linecap="round" stroke-linejoin="round"/>
<path d="M266.741 152.339C266.859 161.701 260.122 170.838 257.968 179.95C256.38 186.668 257.148 193.692 257.979 200.545C258.618 205.816 259.29 211.082 259.994 216.345" stroke="#011843" stroke-width="0.886" stroke-miterlimit="10" stroke-linecap="round" stroke-linejoin="round"/>
<path d="M241.658 153.819C240.884 156.69 240.43 159.648 240.307 162.619" stroke="#011843" stroke-width="0.886" stroke-miterlimit="10" stroke-linecap="round" stroke-linejoin="round"/>
<path d="M220.891 188.924C221.325 181.892 221.746 176.931 224.36 170.388C226.974 163.845 234.494 155.711 240.693 153.888C235.466 166.894 232.494 211.117 238.717 239.228H223.523" fill="#F4F4F4"/>
<path d="M253.904 227.131C255.687 228.711 257.328 229.724 259.252 230.899C261.018 231.977 265.735 232.953 267.803 233.006H270.84L268.855 218.744C268.982 218.744 268.735 218.784 268.855 218.744L267.281 218.706C261.653 217.685 255.743 216.107 250.187 214.743C243.993 217.423 239.319 220.672 234.423 224.986C233.356 225.926 233.543 227.632 234.78 228.332C234.85 228.372 234.923 228.411 234.999 228.45C234.999 228.45 234.73 229.03 235.153 229.743C235.73 230.715 236.796 230.687 237.706 230.776C238.532 230.857 240.471 229.682 240.471 229.682C240.471 229.682 241.328 230.839 241.924 230.782C244.441 230.537 246.811 229.864 249.344 228.953C250.651 228.486 253.904 227.131 253.904 227.131Z" fill="#F2CCB7"/>
<path d="M234.641 228.274C238.658 225.555 242.595 222.717 246.443 219.764" stroke="#011843" stroke-width="0.886" stroke-miterlimit="10" stroke-linecap="round" stroke-linejoin="round"/>
<path d="M241.84 230.504C240.928 230.276 240.59 229.777 240.506 229.244C240.385 228.473 240.807 227.718 241.456 227.286C245.093 224.867 248.634 222.285 251.942 219.435" stroke="#011843" stroke-width="0.886" stroke-miterlimit="10" stroke-linecap="round" stroke-linejoin="round"/>
<path d="M266.105 229.181C263.457 228.918 260.894 227.886 258.787 226.263C257.858 225.548 256.592 225.437 255.552 225.977C253.033 227.286 250.509 228.463 247.903 229.624C247.02 230.017 245.92 229.534 245.756 228.581C245.741 228.495 245.734 228.411 245.735 228.33C245.743 227.732 257.119 219.395 257.119 219.395" stroke="#011843" stroke-width="0.886" stroke-miterlimit="10" stroke-linecap="round" stroke-linejoin="round"/>
<path d="M293.335 150.878C301.774 152.283 309.215 157.542 314.69 164.115C320.165 170.689 323.88 178.533 327.139 186.444C331.437 196.877 335.161 208.722 338.135 220.439C340.552 229.962 332.6 239.297 322.785 239.732C302.214 240.643 271.91 240.036 271.91 239.894L267.861 205.888L284.361 206.888L297.178 208.534C297.178 208.534 286.481 181.063 287.697 164.046C287.909 161.059 293.335 150.878 293.335 150.878Z" fill="#F4F4F4"/>
<path d="M297.623 208.554C297.623 208.554 286.367 181.604 288.304 164.653C289.277 156.144 293.571 152.011 293.571 152.011" stroke="#011843" stroke-width="0.886" stroke-miterlimit="10" stroke-linecap="round" stroke-linejoin="round"/>
<path d="M306.699 208.736L267.86 205.888L271.576 239.827" stroke="#011843" stroke-width="0.886" stroke-miterlimit="10" stroke-linecap="round" stroke-linejoin="round"/>
<path d="M283.86 207.055L285.442 239.894" stroke="#011843" stroke-width="0.886" stroke-miterlimit="10" stroke-linecap="round" stroke-linejoin="round"/>
<path d="M288.557 174.038C287.893 166.54 291.014 158.803 296.693 153.864" stroke="#011843" stroke-width="0.886" stroke-miterlimit="10" stroke-linecap="round" stroke-linejoin="round"/>
<path d="M297.356 208.048C299.703 206.569 302.05 205.091 304.396 203.612" stroke="#011843" stroke-width="0.886" stroke-miterlimit="10" stroke-linecap="round" stroke-linejoin="round"/>
<path d="M325.871 237.09C330.174 235.724 333.765 232.28 335.31 228.037" stroke="#011843" stroke-width="0.886" stroke-miterlimit="10" stroke-linecap="round" stroke-linejoin="round"/>
<path d="M282.469 142.409L261.197 143.949L261.284 121.259H282.1L282.469 142.409Z" fill="#F2CCB7"/>
<path d="M282.469 142.409L266.667 151.89L261.197 143.949C261.197 143.949 265.892 134.063 271.684 134.063C277.475 134.063 282.469 142.409 282.469 142.409Z" fill="#F2CCB7"/>
<path d="M280.879 126.277L261.203 142.269V134.835" fill="#011843"/>
<path d="M265.796 94.5581C263.593 101.337 257.46 106.417 251.088 109.611C252.344 102.418 257.126 95.2061 265.796 94.5581Z" fill="#011843"/>
<path d="M283.725 115.101C283.624 120.477 282.633 126.201 278.437 129.943C276.378 131.779 273.867 133.051 271.262 133.96C267.38 135.315 262.326 136.478 258.282 135.362C253.616 134.073 251.499 129.64 250.696 125.201C250.114 121.987 250.089 118.677 250.258 115.424C250.834 104.34 256.555 95.0029 266.222 95.0029C279.673 95.0039 283.933 104.003 283.725 115.101Z" fill="#F2CCB7"/>
<path d="M288.565 118.037C288.376 121.426 285.745 124.034 282.687 123.864C279.63 123.693 277.305 120.808 277.494 117.42C277.683 114.031 280.314 111.423 283.371 111.593C286.428 111.763 288.754 114.648 288.565 118.037Z" fill="#F2CCB7"/>
<path d="M253.742 116.762C253.742 118.239 252.545 119.436 251.068 119.436C250.809 119.436 250.559 119.399 250.322 119.331C250.279 119.319 250.169 119.275 250.169 119.275C250.169 119.275 250.106 117.851 250.175 116.455C250.235 115.221 250.347 114.19 250.347 114.19C250.347 114.19 250.496 114.149 250.56 114.137C250.725 114.105 250.895 114.089 251.069 114.089C252.545 114.087 253.742 115.285 253.742 116.762Z" fill="#F2CCB7"/>
<path d="M274.082 116.762C274.082 118.239 272.885 119.436 271.408 119.436C269.931 119.436 268.734 118.239 268.734 116.762C268.734 115.285 269.931 114.088 271.408 114.088C272.885 114.087 274.082 115.285 274.082 116.762Z" fill="#F2CCB7"/>
<path d="M261.846 111.535C260.387 113.642 258.539 116.074 258.742 117.331C258.945 118.589 260.248 119.561 261.512 119.397" stroke="#011843" stroke-width="0.9724" stroke-miterlimit="10" stroke-linecap="round" stroke-linejoin="round"/>
<path d="M257.47 113.966C257.47 114.414 257.107 114.776 256.66 114.776C256.212 114.776 255.85 114.413 255.85 113.966C255.85 113.518 256.213 113.156 256.66 113.156C257.107 113.156 257.47 113.518 257.47 113.966Z" fill="#011843"/>
<path d="M267.032 113.966C267.032 114.414 266.669 114.776 266.222 114.776C265.774 114.776 265.412 114.413 265.412 113.966C265.412 113.518 265.775 113.156 266.222 113.156C266.669 113.156 267.032 113.518 267.032 113.966Z" fill="#011843"/>
<path d="M257.401 123.26C258.978 124.69 261.392 125.117 263.364 124.315" stroke="#011843" stroke-width="0.9724" stroke-miterlimit="10" stroke-linecap="round" stroke-linejoin="round"/>
<path d="M295.309 134.616C290.877 137.175 285.209 135.656 282.65 131.224C280.091 126.792 286.042 120.332 286.042 118.565C286.042 116.276 296.142 117.525 298.701 121.957C301.26 126.389 299.741 132.057 295.309 134.616Z" fill="#011843"/>
<path d="M289.514 119.794C289.263 114.736 288.44 109.618 286.196 105.079C283.952 100.54 280.143 96.6091 275.325 95.0511C271.813 93.9151 267.984 94.0891 264.387 94.9151C267.855 97.3951 271.004 100.323 273.874 103.476C278.903 108.997 282.841 116.44 289.514 119.794Z" fill="#011843"/>
<path d="M283.806 112.143C274.669 111.708 264.628 104.324 261.744 95.642C267.7 93.18 273.727 94.607 278.031 98.566C281.557 101.811 283.563 104.971 283.806 112.143Z" fill="#011843"/>
<path d="M263.48 98.9222C260.714 102.483 256.836 106.176 253.122 108.734C252.065 109.462 250.57 110.127 249.601 109.285C249.008 108.77 248.907 107.892 248.947 107.108C249.034 105.392 250.157 103.166 250.934 101.633C251.918 99.6902 253.285 97.8992 255.097 96.6902C256.243 95.9262 257.542 95.4112 258.875 95.0622C260.991 94.5072 263.319 94.3802 265.301 95.3062" fill="#011843"/>
<path d="M282.86 130.055C283.61 134.055 286.821 137.327 290.11 137.681C293.431 138.038 296.782 136.095 298.471 133.214C300.16 130.332 300.283 126.683 299.182 123.53" stroke="#011843" stroke-width="0.886" stroke-miterlimit="10" stroke-linecap="round" stroke-linejoin="round"/>
<path d="M262.677 98.3892C262.147 106.772 271.831 111.02 278.937 109.117" stroke="#011843" stroke-width="0.886" stroke-miterlimit="10" stroke-linecap="round" stroke-linejoin="round"/>
<path d="M250.056 108.883C249.026 108.017 248.71 106.552 248.762 105.207C249.004 98.941 256.832 91.577 263.027 96.269" stroke="#011843" stroke-width="0.886" stroke-miterlimit="10" stroke-linecap="round" stroke-linejoin="round"/>
<path d="M267.842 125.635H271.57C276.017 124.836 282.254 122.105 285.162 118.648" stroke="#011843" stroke-width="0.886" stroke-miterlimit="10" stroke-linecap="round" stroke-linejoin="round"/>
<path d="M270.841 126.769H268.086C267.417 126.769 266.871 126.222 266.871 125.554C266.871 124.885 267.418 124.338 268.086 124.338H270.841C271.509 124.338 272.056 124.885 272.056 125.554C272.056 126.222 271.509 126.769 270.841 126.769Z" fill="#F4F4F4"/>
<path d="M286.359 116.275C286.359 118.692 285.399 121.224 283.655 122.109C283.655 122.109 282.169 122.109 281.497 122.109C278.812 122.109 276.635 119.497 276.635 116.275C276.635 113.053 278.812 110.44 281.497 110.44H283.411C285.304 111.239 286.359 113.732 286.359 116.275Z" fill="#9AAECC"/>
<path d="M279.798 114.102C280.381 109.578 279.164 104.846 276.469 101.166C274.265 98.1541 270.919 95.605 267.368 94.354C267.249 94.312 267.012 94.2331 267.012 94.2331L267.01 93.7271L270.597 93.7881C275.065 93.7881 280.326 99.8771 281.711 104.125C283.096 108.373 283.307 112.897 283.672 117.35" fill="#9AAECC"/>
<path d="M288.142 116.275C288.142 119.497 285.965 122.109 283.28 122.109C280.595 122.109 278.418 119.497 278.418 116.275C278.418 113.053 280.595 110.44 283.28 110.44C285.965 110.441 288.142 113.053 288.142 116.275Z" fill="#F4F4F4"/>
<path d="M281.176 114.102C281.759 109.578 280.542 104.846 277.847 101.166C275.153 97.4851 271.499 94.5391 267.01 93.7271H271.975C272.775 93.7451 275.803 94.8281 277.591 96.3481C280.129 98.5061 282.276 101.632 283.089 104.124C284.474 108.372 284.685 112.896 285.05 117.349" fill="#F4F4F4"/>
<path d="M285.184 116.316C285.184 117.524 284.422 118.504 283.482 118.504C282.542 118.504 281.78 117.524 281.78 116.316C281.78 115.108 282.542 114.128 283.482 114.128C284.422 114.128 285.184 115.107 285.184 116.316Z" stroke="#011843" stroke-width="0.886" stroke-miterlimit="10" stroke-linecap="round" stroke-linejoin="round"/>
<path d="M218.713 239.894H271.152L270.502 234.304H218.713V239.894Z" fill="#213E66"/>
<path d="M228.437 239.894L199.768 184.367C198.463 181.84 195.857 180.252 193.013 180.252H120.433C117.255 180.252 115.184 183.59 116.596 186.437L140.56 234.78C142.387 237.944 145.763 239.893 149.417 239.893H228.437V239.894Z" fill="#213E66"/>
<path d="M222.279 239.894L193.61 184.367C192.305 181.84 189.699 180.252 186.855 180.252H114.275C111.097 180.252 109.026 183.59 110.437 186.437L134.401 234.78C136.228 237.944 139.604 239.893 143.258 239.893H222.279V239.894Z" fill="#011843"/>
<path d="M193.879 193.798L190.86 187.95C189.555 185.423 186.949 183.836 184.105 183.836H163.36" stroke="white" stroke-width="0.6645" stroke-miterlimit="10" stroke-linecap="round" stroke-linejoin="round"/>
<path d="M162.458 214.286C165.046 215.971 168.195 215.722 169.493 213.73C170.791 211.738 169.744 208.756 167.157 207.071C164.569 205.386 161.42 205.635 160.122 207.627C158.825 209.62 159.871 212.601 162.458 214.286Z" stroke="white" stroke-width="0.8184" stroke-miterlimit="10"/>
</svg>
