<svg xmlns="http://www.w3.org/2000/svg" width="63" height="64" viewBox="0 0 63 64" fill="none">
<path d="M48.0929 33.7178V30.9718C48.0929 30.2618 47.5179 29.6868 46.8079 29.6868H45.6589C44.6869 29.6868 43.8599 29.0428 43.5459 28.1228C43.4649 27.8858 43.3769 27.6518 43.2829 27.4218C42.9009 26.4908 43.2119 25.4178 43.9929 24.7818L44.7879 24.1348C45.3329 23.6908 45.4149 22.8898 44.9709 22.3448L43.2219 20.1968C42.7779 19.6518 41.9769 19.5698 41.4319 20.0128L40.4309 20.8278C39.6109 21.4948 38.4809 21.5528 37.5509 21.0498C37.0349 20.7708 36.4979 20.5258 35.9419 20.3198C34.9329 19.9458 34.2299 19.0268 34.2299 17.9498V16.8558C34.2299 16.2198 33.7149 15.7048 33.0789 15.7048H30.0649C29.4289 15.7048 28.9139 16.2198 28.9139 16.8558V18.0058C28.9139 19.0488 28.2349 19.9418 27.2549 20.2998C26.6399 20.5248 26.0479 20.7968 25.4809 21.1108C24.5949 21.6018 23.5099 21.5448 22.7249 20.9058L21.8859 20.2228C21.1989 19.6628 20.1879 19.7668 19.6279 20.4538L18.2979 22.0868C17.7379 22.7738 17.8419 23.7848 18.5289 24.3448L19.3579 25.0198C20.0379 25.5738 20.2409 26.5058 19.9009 27.3148C19.7649 27.6398 19.6409 27.9708 19.5319 28.3088C19.2689 29.1218 18.5339 29.6868 17.6799 29.6868H16.3719C15.6639 29.6868 15.0909 30.2608 15.0909 30.9678V33.7208C15.0909 34.4288 15.6649 35.0018 16.3719 35.0018H17.8889C18.6679 35.0018 19.3509 35.5038 19.6019 36.2418C19.7649 36.7198 19.9559 37.1848 20.1719 37.6358C20.5069 38.3328 20.3769 39.1618 19.8299 39.7088L18.7799 40.7588C18.2709 41.2678 18.2709 42.0928 18.7799 42.6018L20.6949 44.5168C21.2039 45.0258 22.0299 45.0258 22.5389 44.5168L23.0599 43.9998C23.8169 43.2428 24.9759 43.0228 25.9329 43.5008C26.3759 43.7218 26.8329 43.9168 27.3039 44.0858C28.2859 44.4378 28.9139 45.4038 28.9139 46.4478V47.0908C28.9139 47.7428 29.4429 48.2718 30.0959 48.2718H33.0489C33.7019 48.2718 34.2309 47.7428 34.2309 47.0908V46.2298C34.2309 45.2608 34.8659 44.4308 35.7789 44.1078C36.3219 43.9158 36.8479 43.6878 37.3539 43.4268C38.2429 42.9688 39.3349 43.2038 40.0159 43.9368L40.6789 44.6498C41.1809 45.1898 42.0249 45.2198 42.5639 44.7188L44.5029 42.9158C45.0419 42.4138 45.0729 41.5698 44.5719 41.0308L43.5149 39.8938C42.8639 39.1938 42.7349 38.1778 43.1239 37.3048C43.2279 37.0708 43.3249 36.8338 43.4149 36.5928C43.7779 35.6228 44.7359 35.0048 45.7719 35.0048H46.8079C47.5179 35.0028 48.0929 34.4278 48.0929 33.7178ZM31.5719 38.5988C28.0279 38.5988 25.1549 35.7258 25.1549 32.1818C25.1549 28.6378 28.0279 25.7648 31.5719 25.7648C35.1159 25.7648 37.9889 28.6378 37.9889 32.1818C37.9889 35.7258 35.1159 38.5988 31.5719 38.5988Z" fill="#1054D7"/>
</svg>