<svg xmlns="http://www.w3.org/2000/svg" width="24" height="25" viewBox="0 0 24 25" fill="none">
  <path fill-rule="evenodd" clip-rule="evenodd" d="M9 4.976V3.5H8.865C8.3955 3.5 7.941 3.593 7.5015 3.7775C7.06407 3.96087 6.66854 4.23136 6.339 4.5725C6.01829 4.89483 5.76667 5.27915 5.5995 5.702V5.7035C5.45069 6.10502 5.35097 6.52305 5.3025 6.9485V6.9515C5.25984 7.3816 5.24781 7.81419 5.2665 8.246C5.2845 8.681 5.2935 9.116 5.2935 9.5495C5.2935 9.854 5.2335 10.139 5.118 10.4075C4.89786 10.9315 4.48805 11.3546 3.9705 11.5895C3.70659 11.7048 3.42148 11.7635 3.1335 11.762H3V13.238H3.135C3.4275 13.238 3.705 13.298 3.969 13.4195L3.9705 13.421C4.2375 13.538 4.464 13.697 4.653 13.898L4.656 13.901C4.851 14.096 5.0055 14.3285 5.1165 14.5985L5.118 14.6015C5.235 14.8715 5.2935 15.1535 5.2935 15.4505C5.2935 15.8855 5.2845 16.3205 5.2665 16.754C5.2485 17.198 5.2605 17.6315 5.3025 18.059C5.352 18.4835 5.451 18.8975 5.598 19.2965C5.757 19.706 6.0045 20.084 6.339 20.4275C6.6735 20.7725 7.062 21.038 7.5015 21.2225C7.941 21.407 8.3955 21.5 8.8665 21.5H9V20.024H8.865C8.565 20.024 8.2845 19.967 8.0205 19.8515C7.76585 19.7325 7.53388 19.5701 7.335 19.3715C7.14192 19.1659 6.98519 18.9291 6.8715 18.671C6.7605 18.401 6.7065 18.116 6.7065 17.8115C6.7065 17.4695 6.711 17.132 6.723 16.8035C6.735 16.4615 6.735 16.1285 6.723 15.806C6.71771 15.4845 6.69015 15.1637 6.6405 14.846C6.59278 14.5326 6.50819 14.226 6.3885 13.9325C6.15503 13.3646 5.77322 12.8698 5.283 12.5C5.77377 12.1304 6.15612 11.6356 6.39 11.0675C6.51 10.7795 6.5925 10.478 6.642 10.1645C6.6915 9.8495 6.7185 9.53 6.7245 9.2045C6.7365 8.8745 6.7365 8.5415 6.7245 8.2055C6.7125 7.8695 6.7065 7.5305 6.7065 7.1885C6.7039 6.75858 6.82703 6.33727 7.06076 5.97642C7.29448 5.61558 7.6286 5.33093 8.022 5.1575C8.28687 5.03605 8.57512 4.9741 8.8665 4.976H9ZM15 20.024V21.5H15.135C15.6045 21.5 16.059 21.407 16.4985 21.2225C16.938 21.038 17.3265 20.7725 17.661 20.4275C17.9955 20.0825 18.243 19.7075 18.4005 19.298C18.5505 18.899 18.648 18.482 18.6975 18.0515V18.0485C18.7395 17.6285 18.7515 17.198 18.7335 16.754C18.7155 16.319 18.7065 15.884 18.7065 15.4505C18.7065 15.146 18.7665 14.861 18.882 14.5925V14.591C19.1019 14.0668 19.5118 13.6452 20.0295 13.4105C20.2935 13.2954 20.5785 13.2367 20.8665 13.238H21V11.762H20.865C20.571 11.762 20.2935 11.702 20.0295 11.5805L20.028 11.579C19.7705 11.468 19.5382 11.3057 19.3455 11.102L19.3425 11.099C19.1443 10.8993 18.9878 10.6622 18.882 10.4015V10.3985C18.7648 10.1308 18.7045 9.84171 18.705 9.5495C18.705 9.1145 18.714 8.6795 18.732 8.246C18.7507 7.81069 18.7387 7.37461 18.696 6.941C18.6474 6.51865 18.5482 6.10217 18.4005 5.7035V5.702C18.2329 5.27902 17.9807 4.89469 17.6595 4.5725C17.3299 4.2314 16.9344 3.96091 16.497 3.7775C16.0653 3.59415 15.601 3.49977 15.132 3.5H15V4.976H15.135C15.435 4.976 15.7155 5.033 15.978 5.1485C16.239 5.2715 16.467 5.4305 16.6635 5.6285C16.854 5.8295 17.0085 6.0635 17.127 6.329C17.238 6.599 17.292 6.884 17.292 7.1885C17.292 7.5305 17.2875 7.8665 17.2755 8.1965C17.2635 8.5385 17.2635 8.8715 17.2755 9.194C17.2815 9.527 17.3085 9.8465 17.358 10.154C17.4075 10.475 17.4915 10.778 17.61 11.0675C17.8439 11.6356 18.2263 12.1303 18.717 12.5C18.2263 12.8697 17.8439 13.3644 17.61 13.9325C17.4912 14.2227 17.4066 14.5257 17.358 14.8355C17.3085 15.1505 17.2815 15.47 17.2755 15.7955C17.2634 16.1284 17.2634 16.4616 17.2755 16.7945C17.2875 17.1305 17.2935 17.4695 17.2935 17.8115C17.2959 18.2414 17.1727 18.6626 16.939 19.0234C16.7053 19.3842 16.3713 19.6689 15.978 19.8425C15.7131 19.9639 15.4249 20.0259 15.1335 20.024H15Z" fill="white"/>
</svg>