<svg width="24" height="24" viewBox="0 0 24 24" fill="none" xmlns="http://www.w3.org/2000/svg">
<g id="icomoon-free:office" clip-path="url(#clip0_696_13927)">
<path id="Vector" d="M0 24H12V0H0V24ZM7.5 3H10.5V6H7.5V3ZM7.5 9H10.5V12H7.5V9ZM7.5 15H10.5V18H7.5V15ZM1.5 3H4.5V6H1.5V3ZM1.5 9H4.5V12H1.5V9ZM1.5 15H4.5V18H1.5V15ZM13.5 7.5H24V9H13.5V7.5ZM13.5 24H16.5V18H21V24H24V10.5H13.5V24Z" fill="white"/>
</g>
<defs>
<clipPath id="clip0_696_13927">
<rect width="24" height="24" fill="white"/>
</clipPath>
</defs>
</svg>
