<svg width="24" height="24" viewBox="0 0 24 24" fill="none" xmlns="http://www.w3.org/2000/svg">
<g id="iconamoon:home-bold">
<path id="Vector" d="M20.2499 10.0002C20.2499 9.83608 20.2176 9.67354 20.1548 9.52188C20.092 9.37022 19.9999 9.23242 19.8838 9.11635C19.7677 9.00028 19.6299 8.9082 19.4783 8.84538C19.3266 8.78257 19.1641 8.75023 18.9999 8.75023C18.8358 8.75023 18.6732 8.78257 18.5216 8.84538C18.3699 8.9082 18.2321 9.00028 18.116 9.11635C18 9.23242 17.9079 9.37022 17.8451 9.52188C17.7823 9.67354 17.7499 9.83608 17.7499 10.0002H20.2499ZM6.24992 10.0002C6.24992 9.66871 6.11822 9.35077 5.8838 9.11635C5.64938 8.88193 5.33144 8.75023 4.99992 8.75023C4.6684 8.75023 4.35046 8.88193 4.11604 9.11635C3.88162 9.35077 3.74992 9.66871 3.74992 10.0002H6.24992ZM20.1159 12.8842C20.3504 13.1187 20.6684 13.2504 20.9999 13.2504C21.3315 13.2504 21.6495 13.1187 21.8839 12.8842C22.1184 12.6498 22.2501 12.3318 22.2501 12.0002C22.2501 11.6687 22.1184 11.3507 21.8839 11.1162L20.1159 12.8842ZM11.9999 3.00023L12.8839 2.11623C12.7678 2.00012 12.63 1.90802 12.4784 1.84518C12.3267 1.78234 12.1641 1.75 11.9999 1.75C11.8357 1.75 11.6732 1.78234 11.5215 1.84518C11.3698 1.90802 11.232 2.00012 11.1159 2.11623L11.9999 3.00023ZM2.11592 11.1162C1.88147 11.3507 1.74976 11.6687 1.74976 12.0002C1.74976 12.3318 1.88147 12.6498 2.11592 12.8842C2.35037 13.1187 2.66836 13.2504 2.99992 13.2504C3.33148 13.2504 3.64947 13.1187 3.88392 12.8842L2.11592 11.1162ZM6.99992 22.2502H16.9999V19.7502H6.99992V22.2502ZM20.2499 19.0002V10.0002H17.7499V19.0002H20.2499ZM6.24992 19.0002V10.0002H3.74992V19.0002H6.24992ZM21.8839 11.1162L12.8839 2.11623L11.1159 3.88423L20.1159 12.8842L21.8839 11.1162ZM11.1159 2.11623L2.11592 11.1162L3.88392 12.8842L12.8839 3.88423L11.1159 2.11623ZM16.9999 22.2502C17.8619 22.2502 18.6885 21.9078 19.298 21.2983C19.9075 20.6888 20.2499 19.8622 20.2499 19.0002H17.7499C17.7499 19.1991 17.6709 19.3899 17.5303 19.5306C17.3896 19.6712 17.1988 19.7502 16.9999 19.7502V22.2502ZM6.99992 19.7502C6.80101 19.7502 6.61024 19.6712 6.46959 19.5306C6.32894 19.3899 6.24992 19.1991 6.24992 19.0002H3.74992C3.74992 19.8622 4.09233 20.6888 4.70182 21.2983C5.31132 21.9078 6.13797 22.2502 6.99992 22.2502V19.7502Z" fill="white"/>
</g>
</svg>
