<svg width="50" height="51" viewBox="0 0 50 51" fill="none" xmlns="http://www.w3.org/2000/svg">
<g id="logos:facebook" clip-path="url(#clip0_395_3252)">
<path id="Vector" d="M50 25.4585C50 11.6515 38.807 0.458496 25 0.458496C11.193 0.458496 0 11.6513 0 25.4585C0 37.9366 9.14219 48.2794 21.0938 50.1548V32.6851H14.7461V25.4585H21.0938V19.9507C21.0938 13.6851 24.8262 10.2241 30.5365 10.2241C33.2719 10.2241 36.1328 10.7124 36.1328 10.7124V16.8647H32.9805C29.8746 16.8647 28.9062 18.7919 28.9062 20.769V25.4585H35.8398L34.7314 32.6851H28.9062V50.1548C40.8578 48.2794 50 37.9368 50 25.4585Z" fill="#1877F2"/>
<path id="Vector_2" d="M34.7314 32.6851L35.8398 25.4585H28.9062V20.769C28.9062 18.7917 29.8748 16.8647 32.9805 16.8647H36.1328V10.7124C36.1328 10.7124 33.2719 10.2241 30.5365 10.2241C24.8262 10.2241 21.0938 13.6851 21.0938 19.9507V25.4585H14.7461V32.6851H21.0938V50.1548C22.386 50.3573 23.692 50.4588 25 50.4585C26.308 50.4589 27.614 50.3573 28.9062 50.1548V32.6851H34.7314Z" fill="white"/>
</g>
<defs>
<clipPath id="clip0_395_3252">
<rect width="50" height="50" fill="white" transform="translate(0 0.458496)"/>
</clipPath>
</defs>
</svg>
