<svg width="50" height="37" viewBox="0 0 50 37" fill="none" xmlns="http://www.w3.org/2000/svg">
<g id="logos:youtube-icon" clip-path="url(#clip0_395_3267)">
<path id="Vector" d="M48.8926 6.36553C48.6058 5.30581 48.0464 4.33969 47.2702 3.56339C46.4939 2.78709 45.5278 2.22769 44.4681 1.94088C40.5885 0.882812 24.9745 0.882812 24.9745 0.882812C24.9745 0.882812 9.35961 0.91484 5.48002 1.97291C4.42029 2.25973 3.45418 2.81916 2.67791 3.5955C1.90164 4.37184 1.3423 5.33799 1.05557 6.39775C-0.117916 13.291 -0.573133 23.7948 1.08779 30.4123C1.37455 31.472 1.93391 32.4382 2.71018 33.2145C3.48644 33.9908 4.45253 34.5502 5.51224 34.837C9.39183 35.895 25.0063 35.895 25.0063 35.895C25.0063 35.895 40.6205 35.895 44.4999 34.837C45.5597 34.5502 46.5258 33.9908 47.3021 33.2145C48.0784 32.4382 48.6378 31.4721 48.9246 30.4123C50.1623 23.5093 50.5437 13.012 48.8926 6.36553Z" fill="#FF0000"/>
<path id="Vector_2" d="M20.0049 25.8914L32.958 18.3888L20.0049 10.8862V25.8914Z" fill="white"/>
</g>
<defs>
<clipPath id="clip0_395_3267">
<rect width="50" height="35.1519" fill="white" transform="translate(0 0.882812)"/>
</clipPath>
</defs>
</svg>
