<svg width="40" height="41" viewBox="0 0 40 41" fill="none" xmlns="http://www.w3.org/2000/svg">
<g id="logos:whatsapp-icon" clip-path="url(#clip0_395_3216)">
<path id="Vector" d="M0.856714 19.9117C0.855776 23.2983 1.74064 26.6049 3.4232 29.5195L0.695801 39.4777L10.8867 36.8056C13.7054 38.34 16.8635 39.1441 20.0728 39.1443H20.0813C30.6757 39.1443 39.2999 30.5232 39.3044 19.9269C39.3064 14.7922 37.3086 9.96389 33.6789 6.33132C30.0497 2.69907 25.2231 0.697656 20.0805 0.695312C9.48477 0.695312 0.861244 9.31587 0.85687 19.9117" fill="url(#paint0_linear_395_3216)"/>
<path id="Vector_2" d="M0.170092 19.9057C0.168998 23.4141 1.08558 26.839 2.82812 29.8579L0.00292969 40.1731L10.5593 37.4052C13.4679 38.9911 16.7427 39.8272 20.075 39.8284H20.0836C31.0582 39.8284 39.9921 30.8973 39.9968 19.9216C39.9987 14.6025 37.929 9.60056 34.1696 5.83786C30.4097 2.07562 25.4104 0.00218717 20.0836 0C9.10716 0 0.174466 8.92988 0.170092 19.9057ZM6.45663 29.338L6.06247 28.7123C4.40554 26.0777 3.53098 23.0332 3.53223 19.907C3.53583 10.7841 10.9603 3.36199 20.0899 3.36199C24.5111 3.36386 28.666 5.08735 31.7912 8.21437C34.9162 11.3417 36.6358 15.4989 36.6347 19.9204C36.6306 29.0432 29.206 36.4663 20.0836 36.4663H20.077C17.1067 36.4647 14.1936 35.667 11.653 34.1596L11.0484 33.8011L4.78407 35.4435L6.45663 29.3379V29.338Z" fill="url(#paint1_linear_395_3216)"/>
<path id="Vector_3" d="M15.1067 11.5837C14.734 10.7552 14.3417 10.7385 13.9872 10.724C13.6969 10.7115 13.3651 10.7124 13.0336 10.7124C12.7018 10.7124 12.1627 10.8372 11.7069 11.3348C11.2508 11.8329 9.96533 13.0364 9.96533 15.4843C9.96533 17.9324 11.7483 20.2981 11.9969 20.6304C12.2458 20.9621 15.439 26.1463 20.4964 28.1407C24.6995 29.7981 25.5548 29.4685 26.467 29.3853C27.3794 29.3025 29.4109 28.1821 29.8254 27.0202C30.2402 25.8585 30.2402 24.8628 30.1158 24.6547C29.9915 24.4473 29.6597 24.3228 29.1621 24.0741C28.6643 23.8253 26.2182 22.6215 25.7621 22.4555C25.306 22.2896 24.9743 22.2068 24.6425 22.705C24.3106 23.2024 23.3578 24.3228 23.0674 24.6547C22.7773 24.9873 22.4869 25.0287 21.9894 24.7798C21.4915 24.5301 19.8891 24.0054 17.988 22.3105C16.5089 20.9916 15.5103 19.363 15.22 18.8648C14.9297 18.3673 15.1889 18.0977 15.4384 17.8498C15.662 17.6268 15.9361 17.2688 16.1852 16.9783C16.4332 16.6878 16.516 16.4804 16.682 16.1486C16.848 15.8165 16.7649 15.5259 16.6407 15.277C16.516 15.0282 15.5492 12.5674 15.1067 11.5837Z" fill="white"/>
</g>
<defs>
<linearGradient id="paint0_linear_395_3216" x1="1931.13" y1="3878.93" x2="1931.13" y2="0.695312" gradientUnits="userSpaceOnUse">
<stop stop-color="#1FAF38"/>
<stop offset="1" stop-color="#60D669"/>
</linearGradient>
<linearGradient id="paint1_linear_395_3216" x1="1999.7" y1="4017.31" x2="1999.7" y2="0" gradientUnits="userSpaceOnUse">
<stop stop-color="#F9F9F9"/>
<stop offset="1" stop-color="white"/>
</linearGradient>
<clipPath id="clip0_395_3216">
<rect width="40" height="40.3063" fill="white"/>
</clipPath>
</defs>
</svg>
