<svg width="40" height="31" viewBox="0 0 40 31" fill="none" xmlns="http://www.w3.org/2000/svg">
<g id="logos:google-gmail" clip-path="url(#clip0_395_3228)">
<path id="Vector" d="M9.09218 30.3099V14.8573L4.29984 10.473L0.00244141 8.04004V27.5829C0.00244141 29.0918 1.22494 30.3099 2.72942 30.3099H9.09218Z" fill="#4285F4"/>
<path id="Vector_2" d="M30.9077 30.3102H37.2705C38.7795 30.3102 39.9975 29.0876 39.9975 27.5833V8.04053L35.13 10.8272L30.9077 14.8576V30.3102Z" fill="#34A853"/>
<path id="Vector_3" d="M9.09253 14.8576L8.44043 8.81978L9.09253 3.04102L20.0002 11.2218L30.9078 3.04102L31.6372 8.50779L30.9078 14.8576L20.0002 23.0384L9.09253 14.8576Z" fill="#EA4335"/>
<path id="Vector_4" d="M30.9077 3.04074V14.8573L39.9975 8.04008V4.40416C39.9975 1.03195 36.148 -0.890457 33.453 1.13193L30.9077 3.04074Z" fill="#FBBC04"/>
<path id="Vector_5" d="M0.00244141 8.04015L4.18298 11.1757L9.09218 14.8574V3.04081L6.54689 1.132C3.84725 -0.890541 0.00244141 1.03202 0.00244141 4.40407V8.04V8.04015Z" fill="#C5221F"/>
</g>
<defs>
<clipPath id="clip0_395_3228">
<rect width="40" height="30.1523" fill="white" transform="translate(0 0.306152)"/>
</clipPath>
</defs>
</svg>
