<svg xmlns="http://www.w3.org/2000/svg" width="24" height="25" viewBox="0 0 24 25" fill="none">
  <path d="M4.6437 5.2998L20.5437 5.2998C22.0437 5.2998 22.7997 6.0078 22.7997 7.4478V17.5518C22.7997 18.9798 22.0437 19.6998 20.5437 19.6998H4.6437C3.1437 19.6998 2.3877 18.9798 2.3877 17.5518L2.3877 7.4478C2.3877 6.0078 3.1437 5.2998 4.6437 5.2998ZM12.5877 15.6198L20.6757 8.9838C20.9637 8.7438 21.1917 8.1918 20.8317 7.6998C20.4837 7.2078 19.8477 7.1958 19.4277 7.4958L12.5877 12.1278L5.7597 7.4958C5.3397 7.1958 4.7037 7.2078 4.3557 7.6998C3.9957 8.1918 4.2237 8.7438 4.5117 8.9838L12.5877 15.6198Z" fill="white"/>
</svg>