<svg width="24" height="25" viewBox="0 0 24 25" fill="none" xmlns="http://www.w3.org/2000/svg">
<g id="material-symbols:link">
<path id="Vector" d="M11 17.5H7C5.61667 17.5 4.43733 17.0123 3.462 16.037C2.48667 15.0617 1.99933 13.8827 2 12.5C2 11.1167 2.48767 9.93733 3.463 8.962C4.43833 7.98667 5.61733 7.49933 7 7.5H11V9.5H7C6.16667 9.5 5.45833 9.79167 4.875 10.375C4.29167 10.9583 4 11.6667 4 12.5C4 13.3333 4.29167 14.0417 4.875 14.625C5.45833 15.2083 6.16667 15.5 7 15.5H11V17.5ZM8 13.5V11.5H16V13.5H8ZM13 17.5V15.5H17C17.8333 15.5 18.5417 15.2083 19.125 14.625C19.7083 14.0417 20 13.3333 20 12.5C20 11.6667 19.7083 10.9583 19.125 10.375C18.5417 9.79167 17.8333 9.5 17 9.5H13V7.5H17C18.3833 7.5 19.5627 7.98767 20.538 8.963C21.5133 9.93833 22.0007 11.1173 22 12.5C22 13.8833 21.5123 15.0627 20.537 16.038C19.5617 17.0133 18.3827 17.5007 17 17.5H13Z" fill="white"/>
</g>
</svg>
