<svg xmlns="http://www.w3.org/2000/svg" width="24" height="25" viewBox="0 0 24 25" fill="none">
  <g clip-path="url(#clip0_2259_40765)">
    <path fill-rule="evenodd" clip-rule="evenodd" d="M12.3255 8.3645C13.7175 6.482 15.2565 5 17.2245 5C20.94 5 24 9.7295 24.0015 15.3605C24.0015 18.7955 22.5225 20.948 19.866 20.948C17.5515 20.948 16.2735 19.649 13.98 15.812L12.9795 14.1275L12.8025 13.832C12.5416 13.391 12.2766 12.9525 12.0075 12.5165L10.2405 15.6365C7.731 20.024 6.318 20.948 4.356 20.948C1.629 20.948 0 18.8255 0 15.4595C0 10.082 2.9925 5 6.897 5C7.3755 5 7.8345 5.0585 8.283 5.183C8.748 5.312 9.1995 5.513 9.6525 5.7935C10.518 6.332 11.3835 7.166 12.3255 8.3645ZM14.5995 11.7005C14.2215 11.0855 13.8585 10.52 13.509 10.001L13.5 9.989C14.7675 8.0315 15.8145 7.058 17.058 7.058C19.6425 7.058 21.711 10.8635 21.711 15.5375C21.711 17.3195 21.126 18.353 19.9185 18.353C18.759 18.353 18.2055 17.588 16.0035 14.048L14.5995 11.7005ZM7.269 7.634C8.3565 7.784 9.3465 8.585 10.779 10.6355C9.95245 11.9012 9.13493 13.1727 8.3265 14.45C6.291 17.639 5.5875 18.3545 4.455 18.3545C3.2895 18.3545 2.595 17.3315 2.595 15.5045C2.595 11.6015 4.542 7.6085 6.864 7.6085C7.0005 7.6085 7.1355 7.616 7.269 7.634Z" fill="white"/>
  </g>
  <defs>
    <clipPath id="clip0_2259_40765">
      <rect width="24" height="24" fill="white" transform="translate(0 0.5)"/>
    </clipPath>
  </defs>
</svg>