<svg width="24" height="24" viewBox="0 0 24 24" fill="none" xmlns="http://www.w3.org/2000/svg">
<g id="octicon:person-16">
<path id="Vector" d="M15.8416 12.1093C17.3184 12.8073 18.5776 13.8938 19.4844 15.2525C20.3912 16.6111 20.9115 18.1907 20.9896 19.8223C20.9999 19.9718 20.9802 20.1218 20.9318 20.2636C20.8833 20.4054 20.807 20.536 20.7073 20.6479C20.6077 20.7598 20.4867 20.8506 20.3514 20.9151C20.2162 20.9796 20.0694 21.0164 19.9198 21.0234C19.7701 21.0304 19.6206 21.0074 19.4799 20.9558C19.3392 20.9042 19.2103 20.8251 19.1006 20.723C18.991 20.6209 18.9028 20.4979 18.8413 20.3613C18.7799 20.2246 18.7463 20.0771 18.7426 19.9273C18.6608 18.1941 17.9147 16.5589 16.6592 15.3613C15.4037 14.1636 13.7352 13.4954 12.0001 13.4954C10.265 13.4954 8.59646 14.1636 7.34095 15.3613C6.08544 16.5589 5.33937 18.1941 5.2576 19.9273C5.23739 20.2207 5.10311 20.4945 4.88352 20.6901C4.66394 20.8857 4.37649 20.9875 4.08274 20.9738C3.78899 20.9601 3.5123 20.8319 3.3119 20.6166C3.11151 20.4014 3.00336 20.1163 3.0106 19.8223C3.08839 18.1908 3.60839 16.6112 4.51495 15.2526C5.4215 13.894 6.68048 12.8074 8.1571 12.1093C7.21061 11.3198 6.53029 10.258 6.20867 9.06818C5.88705 7.87837 5.93975 6.61837 6.35959 5.45957C6.77944 4.30077 7.54604 3.29942 8.55514 2.59174C9.56424 1.88406 10.7668 1.50439 11.9993 1.50439C13.2319 1.50439 14.4345 1.88406 15.4436 2.59174C16.4526 3.29942 17.2193 4.30077 17.6391 5.45957C18.0589 6.61837 18.1116 7.87837 17.79 9.06818C17.4684 10.258 16.7881 11.3198 15.8416 12.1093ZM15.7501 7.49982C15.7501 6.50525 15.355 5.55143 14.6517 4.84817C13.9485 4.1449 12.9947 3.74982 12.0001 3.74982C11.0055 3.74982 10.0517 4.1449 9.34844 4.84817C8.64518 5.55143 8.2501 6.50525 8.2501 7.49982C8.2501 8.49438 8.64518 9.4482 9.34844 10.1515C10.0517 10.8547 11.0055 11.2498 12.0001 11.2498C12.9947 11.2498 13.9485 10.8547 14.6517 10.1515C15.355 9.4482 15.7501 8.49438 15.7501 7.49982Z" fill="white"/>
</g>
</svg>
