<svg width="50" height="51" viewBox="0 0 50 51" fill="none" xmlns="http://www.w3.org/2000/svg">
<g id="skill-icons:linkedin" clip-path="url(#clip0_395_3257)">
<g id="Group">
<path id="Vector" d="M38.2812 0.458496H11.7188C5.24666 0.458496 0 5.70516 0 12.1772V38.7397C0 45.2118 5.24666 50.4585 11.7188 50.4585H38.2812C44.7533 50.4585 50 45.2118 50 38.7397V12.1772C50 5.70516 44.7533 0.458496 38.2812 0.458496Z" fill="white"/>
<path id="Vector_2" d="M38.2812 0.458496H11.7188C5.24666 0.458496 0 5.70516 0 12.1772V38.7397C0 45.2118 5.24666 50.4585 11.7188 50.4585H38.2812C44.7533 50.4585 50 45.2118 50 38.7397V12.1772C50 5.70516 44.7533 0.458496 38.2812 0.458496Z" fill="#0A66C2"/>
<path id="Vector_3" d="M36.0771 42.9751H41.7939C42.0011 42.9751 42.1998 42.8928 42.3463 42.7463C42.4928 42.5999 42.5751 42.4012 42.5752 42.194L42.5781 30.1155C42.5781 23.8024 41.2178 18.9499 33.8402 18.9499C31.0357 18.8456 28.391 20.2913 26.9639 22.7054C26.9569 22.7171 26.9463 22.7262 26.9336 22.7313C26.921 22.7365 26.907 22.7373 26.8938 22.7337C26.8807 22.7302 26.869 22.7224 26.8607 22.7116C26.8523 22.7008 26.8478 22.6876 26.8477 22.6739V20.314C26.8477 20.1068 26.7653 19.9081 26.6188 19.7615C26.4723 19.615 26.2736 19.5327 26.0664 19.5327H20.6412C20.434 19.5327 20.2353 19.615 20.0888 19.7615C19.9423 19.9081 19.86 20.1068 19.86 20.314V42.1929C19.86 42.4001 19.9423 42.5988 20.0888 42.7453C20.2353 42.8918 20.434 42.9741 20.6412 42.9741H26.3576C26.5648 42.9741 26.7635 42.8918 26.91 42.7453C27.0566 42.5988 27.1389 42.4001 27.1389 42.1929V31.3778C27.1389 28.3198 27.7189 25.3583 31.5102 25.3583C35.2475 25.3583 35.2959 28.8575 35.2959 31.5759V42.1938C35.2959 42.401 35.3782 42.5998 35.5247 42.7463C35.6712 42.8928 35.8699 42.9751 36.0771 42.9751ZM7.42188 12.1044C7.42188 14.4218 9.32949 16.3284 11.6469 16.3284C13.9637 16.3282 15.8701 14.4204 15.8701 12.1036C15.8697 9.78682 13.9631 7.88037 11.6461 7.88037C9.32852 7.88037 7.42188 9.78721 7.42188 12.1044ZM8.78105 42.9751H14.5051C14.7123 42.9751 14.911 42.8928 15.0575 42.7463C15.204 42.5998 15.2863 42.401 15.2863 42.1938V20.314C15.2863 20.1068 15.204 19.9081 15.0575 19.7615C14.911 19.615 14.7123 19.5327 14.5051 19.5327H8.78105C8.57385 19.5327 8.37514 19.615 8.22863 19.7615C8.08211 19.9081 7.9998 20.1068 7.9998 20.314V42.1938C7.9998 42.401 8.08211 42.5998 8.22863 42.7463C8.37514 42.8928 8.57385 42.9751 8.78105 42.9751Z" fill="white"/>
</g>
</g>
<defs>
<clipPath id="clip0_395_3257">
<rect width="50" height="50" fill="white" transform="translate(0 0.458496)"/>
</clipPath>
</defs>
</svg>
