<svg width="50" height="51" viewBox="0 0 50 51" fill="none" xmlns="http://www.w3.org/2000/svg">
<g id="skill-icons:instagram" clip-path="url(#clip0_395_3262)">
<g id="Group">
<path id="Vector" d="M38.2812 0.458496H11.7188C5.24666 0.458496 0 5.70516 0 12.1772V38.7397C0 45.2118 5.24666 50.4585 11.7188 50.4585H38.2812C44.7533 50.4585 50 45.2118 50 38.7397V12.1772C50 5.70516 44.7533 0.458496 38.2812 0.458496Z" fill="url(#paint0_radial_395_3262)"/>
<path id="Vector_2" d="M38.2812 0.458496H11.7188C5.24666 0.458496 0 5.70516 0 12.1772V38.7397C0 45.2118 5.24666 50.4585 11.7188 50.4585H38.2812C44.7533 50.4585 50 45.2118 50 38.7397V12.1772C50 5.70516 44.7533 0.458496 38.2812 0.458496Z" fill="url(#paint1_radial_395_3262)"/>
<path id="Vector_3" d="M25.0018 5.92725C19.6975 5.92725 19.0316 5.95049 16.9484 6.04521C14.8691 6.14053 13.4498 6.46963 12.208 6.95264C10.9232 7.45146 9.83359 8.11885 8.74805 9.20478C7.66152 10.2905 6.99414 11.3802 6.49375 12.6644C6.00938 13.9065 5.67988 15.3265 5.58633 17.4048C5.49316 19.4882 5.46875 20.1542 5.46875 25.4587C5.46875 30.7632 5.49219 31.4269 5.58672 33.5101C5.68242 35.5894 6.01152 37.0087 6.49414 38.2505C6.99336 39.5353 7.66074 40.6249 8.74668 41.7104C9.83203 42.797 10.9217 43.4659 12.2055 43.9647C13.4482 44.4478 14.8678 44.7769 16.9467 44.8722C19.0301 44.9669 19.6953 44.9901 24.9994 44.9901C30.3043 44.9901 30.968 44.9669 33.0512 44.8722C35.1305 44.7769 36.5514 44.4478 37.7941 43.9647C39.0783 43.4659 40.1664 42.797 41.2516 41.7104C42.3381 40.6249 43.0053 39.5353 43.5059 38.2511C43.9859 37.0087 44.3156 35.589 44.4133 33.5104C44.5068 31.4272 44.5312 30.7632 44.5312 25.4587C44.5312 20.1542 44.5068 19.4886 44.4133 17.4052C44.3156 15.3259 43.9859 13.9067 43.5059 12.6649C43.0053 11.3802 42.3381 10.2905 41.2516 9.20478C40.1652 8.11846 39.0787 7.45107 37.793 6.95283C36.5479 6.46963 35.1277 6.14033 33.0484 6.04521C30.965 5.95049 30.3018 5.92725 24.9957 5.92725H25.0018ZM23.2496 9.44697C23.7697 9.44619 24.35 9.44697 25.0018 9.44697C30.2168 9.44697 30.8348 9.46572 32.8941 9.55928C34.7984 9.64639 35.832 9.96455 36.5205 10.2319C37.432 10.5858 38.0818 11.0091 38.765 11.6929C39.4486 12.3765 39.8717 13.0274 40.2266 13.939C40.4939 14.6265 40.8125 15.6601 40.8992 17.5644C40.9928 19.6233 41.0131 20.2417 41.0131 25.4542C41.0131 30.6667 40.9928 31.2853 40.8992 33.344C40.8121 35.2483 40.4939 36.2819 40.2266 36.9696C39.8727 37.8812 39.4486 38.5302 38.765 39.2134C38.0814 39.897 37.4324 40.32 36.5205 40.6741C35.8328 40.9427 34.7984 41.2601 32.8941 41.3472C30.8352 41.4407 30.2168 41.461 25.0018 41.461C19.7865 41.461 19.1684 41.4407 17.1096 41.3472C15.2053 41.2593 14.1717 40.9411 13.4826 40.6737C12.5713 40.3196 11.9201 39.8966 11.2365 39.213C10.5529 38.5294 10.1299 37.88 9.775 36.9681C9.50762 36.2804 9.18906 35.2468 9.10234 33.3425C9.00879 31.2835 8.99004 30.6651 8.99004 25.4493C8.99004 20.2337 9.00879 19.6185 9.10234 17.5595C9.18945 15.6552 9.50762 14.6216 9.775 13.9331C10.1291 13.0216 10.5529 12.3706 11.2367 11.687C11.9203 11.0034 12.5713 10.5802 13.4828 10.2255C14.1713 9.95693 15.2053 9.63955 17.1096 9.55205C18.9113 9.47061 19.6096 9.44619 23.2496 9.44209V9.44697ZM35.4275 12.6899C34.1336 12.6899 33.0838 13.7388 33.0838 15.0329C33.0838 16.3269 34.1336 17.3767 35.4275 17.3767C36.7215 17.3767 37.7713 16.3269 37.7713 15.0329C37.7713 13.739 36.7215 12.6892 35.4275 12.6892V12.6899ZM25.0018 15.4284C19.4627 15.4284 14.9717 19.9194 14.9717 25.4587C14.9717 30.998 19.4627 35.4868 25.0018 35.4868C30.541 35.4868 35.0305 30.998 35.0305 25.4587C35.0305 19.9196 30.5406 15.4284 25.0014 15.4284H25.0018ZM25.0018 18.9481C28.5973 18.9481 31.5123 21.8628 31.5123 25.4587C31.5123 29.0542 28.5973 31.9692 25.0018 31.9692C21.4061 31.9692 18.4914 29.0542 18.4914 25.4587C18.4914 21.8628 21.4061 18.9481 25.0018 18.9481Z" fill="white"/>
</g>
</g>
<defs>
<radialGradient id="paint0_radial_395_3262" cx="0" cy="0" r="1" gradientUnits="userSpaceOnUse" gradientTransform="translate(13.2812 54.3095) rotate(-90) scale(49.5537 46.0889)">
<stop stop-color="#FFDD55"/>
<stop offset="0.1" stop-color="#FFDD55"/>
<stop offset="0.5" stop-color="#FF543E"/>
<stop offset="1" stop-color="#C837AB"/>
</radialGradient>
<radialGradient id="paint1_radial_395_3262" cx="0" cy="0" r="1" gradientUnits="userSpaceOnUse" gradientTransform="translate(-8.3752 4.06025) rotate(78.681) scale(22.1508 91.3062)">
<stop stop-color="#3771C8"/>
<stop offset="0.128" stop-color="#3771C8"/>
<stop offset="1" stop-color="#6600FF" stop-opacity="0"/>
</radialGradient>
<clipPath id="clip0_395_3262">
<rect width="50" height="50" fill="white" transform="translate(0 0.458496)"/>
</clipPath>
</defs>
</svg>
