<svg width="20" height="21" viewBox="0 0 20 21" fill="none" xmlns="http://www.w3.org/2000/svg">
<g id="uil:message">
<path id="Vector" d="M16.9502 8.26661L5.28354 2.43328C4.82312 2.20412 4.30322 2.12254 3.79473 2.19965C3.28625 2.27677 2.81392 2.50884 2.44215 2.86421C2.07038 3.21958 1.81725 3.68096 1.71728 4.18545C1.61732 4.68994 1.67537 5.21299 1.88354 5.68328L3.88354 10.1583C3.92892 10.2665 3.95229 10.3826 3.95229 10.4999C3.95229 10.6173 3.92892 10.7334 3.88354 10.8416L1.88354 15.3166C1.71412 15.6972 1.6425 16.1141 1.67519 16.5294C1.70787 16.9447 1.84382 17.3453 2.07069 17.6947C2.29756 18.0441 2.60814 18.3313 2.97423 18.5301C3.34031 18.729 3.75028 18.8332 4.16687 18.8333C4.55707 18.8294 4.94145 18.7383 5.29187 18.5666L16.9585 12.7333C17.3724 12.5251 17.7202 12.206 17.9633 11.8117C18.2063 11.4173 18.3351 10.9632 18.3351 10.4999C18.3351 10.0367 18.2063 9.58257 17.9633 9.18821C17.7202 8.79386 17.3724 8.47479 16.9585 8.26661H16.9502ZM16.2085 11.2416L4.54187 17.0749C4.38867 17.1485 4.21665 17.1735 4.04886 17.1465C3.88107 17.1195 3.72555 17.0419 3.60313 16.924C3.48072 16.8061 3.39727 16.6536 3.36398 16.487C3.33069 16.3203 3.34915 16.1475 3.41687 15.9916L5.40854 11.5166C5.43432 11.4569 5.45658 11.3956 5.47521 11.3333H11.2169C11.4379 11.3333 11.6498 11.2455 11.8061 11.0892C11.9624 10.9329 12.0502 10.721 12.0502 10.4999C12.0502 10.2789 11.9624 10.067 11.8061 9.91069C11.6498 9.75441 11.4379 9.66661 11.2169 9.66661H5.47521C5.45658 9.60425 5.43432 9.54303 5.40854 9.48328L3.41687 5.00828C3.34915 4.85241 3.33069 4.67957 3.36398 4.51292C3.39727 4.34627 3.48072 4.19378 3.60313 4.0759C3.72555 3.95802 3.88107 3.88039 4.04886 3.8534C4.21665 3.82642 4.38867 3.85139 4.54187 3.92494L16.2085 9.75828C16.345 9.82821 16.4596 9.93446 16.5396 10.0653C16.6196 10.1962 16.6619 10.3466 16.6619 10.4999C16.6619 10.6533 16.6196 10.8037 16.5396 10.9346C16.4596 11.0654 16.345 11.1717 16.2085 11.2416Z" fill="white"/>
</g>
</svg>
