<svg xmlns="http://www.w3.org/2000/svg" width="16" height="16" viewBox="0 0 16 16" fill="none">
  <path d="M13.4999 6.66666C13.4999 6.55722 13.4784 6.44886 13.4365 6.34776C13.3946 6.24665 13.3333 6.15479 13.2559 6.0774C13.1785 6.00002 13.0866 5.93864 12.9855 5.89676C12.8844 5.85488 12.776 5.83333 12.6666 5.83333C12.5572 5.83333 12.4488 5.85488 12.3477 5.89676C12.2466 5.93864 12.1547 6.00002 12.0774 6.0774C12 6.15479 11.9386 6.24665 11.8967 6.34776C11.8548 6.44886 11.8333 6.55722 11.8333 6.66666H13.4999ZM4.16661 6.66666C4.16661 6.44564 4.07882 6.23368 3.92254 6.0774C3.76626 5.92112 3.55429 5.83333 3.33328 5.83333C3.11227 5.83333 2.90031 5.92112 2.74402 6.0774C2.58774 6.23368 2.49995 6.44564 2.49995 6.66666H4.16661ZM13.4106 8.58932C13.5669 8.74563 13.7789 8.83344 13.9999 8.83344C14.221 8.83344 14.433 8.74563 14.5893 8.58932C14.7456 8.43302 14.8334 8.22104 14.8334 7.99999C14.8334 7.77895 14.7456 7.56696 14.5893 7.41066L13.4106 8.58932ZM7.99995 1.99999L8.58928 1.41066C8.5119 1.33325 8.42002 1.27185 8.3189 1.22996C8.21778 1.18807 8.1094 1.1665 7.99995 1.1665C7.89049 1.1665 7.78211 1.18807 7.68099 1.22996C7.57987 1.27185 7.488 1.33325 7.41061 1.41066L7.99995 1.99999ZM1.41061 7.41066C1.25431 7.56696 1.1665 7.77895 1.1665 7.99999C1.1665 8.22104 1.25431 8.43302 1.41061 8.58932C1.56691 8.74563 1.7789 8.83344 1.99995 8.83344C2.22099 8.83344 2.43298 8.74563 2.58928 8.58932L1.41061 7.41066ZM4.66661 14.8333H11.3333V13.1667H4.66661V14.8333ZM13.4999 12.6667V6.66666H11.8333V12.6667H13.4999ZM4.16661 12.6667V6.66666H2.49995V12.6667H4.16661ZM14.5893 7.41066L8.58928 1.41066L7.41061 2.58933L13.4106 8.58932L14.5893 7.41066ZM7.41061 1.41066L1.41061 7.41066L2.58928 8.58932L8.58928 2.58933L7.41061 1.41066ZM11.3333 14.8333C11.9079 14.8333 12.459 14.6051 12.8653 14.1987C13.2717 13.7924 13.4999 13.2413 13.4999 12.6667H11.8333C11.8333 12.7993 11.7806 12.9264 11.6868 13.0202C11.5931 13.114 11.4659 13.1667 11.3333 13.1667V14.8333ZM4.66661 13.1667C4.53401 13.1667 4.40683 13.114 4.31306 13.0202C4.21929 12.9264 4.16661 12.7993 4.16661 12.6667H2.49995C2.49995 13.2413 2.72822 13.7924 3.13455 14.1987C3.54088 14.6051 4.09198 14.8333 4.66661 14.8333V13.1667Z" fill="black"/>
</svg>