<svg xmlns="http://www.w3.org/2000/svg" width="51" height="50" viewBox="0 0 51 50" fill="none">
  <g clip-path="url(#clip0_2253_31531)">
    <path d="M16.125 50.0003V33.4378C14.25 32.5003 13 30.3128 13 28.1253V15.6253C13 13.4378 14.25 11.5628 16.125 10.3128V9.3753C16.125 5.9378 13.3125 3.1253 9.875 3.1253C6.4375 3.1253 3.625 5.9378 3.625 9.3753C3.625 12.8128 6.4375 15.6253 9.875 15.6253H3.625C2.0625 15.6253 0.5 17.1878 0.5 18.7503V31.2503C0.5 32.8128 2.0625 34.3753 3.625 34.3753V50.0003H16.125ZM47.375 15.6253H41.125C44.5625 15.6253 47.375 12.8128 47.375 9.3753C47.375 5.9378 44.5625 3.1253 41.125 3.1253C37.6875 3.1253 34.875 5.9378 34.875 9.3753V10.3128C36.75 11.5628 38 13.4378 38 15.6253V28.1253C38 30.3128 36.75 32.5003 34.875 33.4378V50.0003H47.375V34.3753C48.9375 34.3753 50.5 32.8128 50.5 31.2503V18.7503C50.5 17.1878 48.9375 15.6253 47.375 15.6253ZM31.75 6.2503C31.7688 7.08261 31.6212 7.91029 31.3157 8.68475C31.0103 9.45921 30.5532 10.1648 29.9712 10.7602C29.3893 11.3556 28.6943 11.8287 27.927 12.1518C27.1598 12.4749 26.3357 12.6414 25.5032 12.6416C24.6706 12.6418 23.8465 12.4757 23.079 12.153C22.3116 11.8303 21.6164 11.3575 21.0341 10.7625C20.4519 10.1674 19.9945 9.46197 19.6886 8.68766C19.3828 7.91335 19.2347 7.08575 19.2531 6.25343C19.2892 4.62042 19.9632 3.06644 21.1307 1.92415C22.2983 0.781848 23.8666 0.14201 25.5 0.141602C27.1334 0.141193 28.7021 0.780246 29.8702 1.92196C31.0383 3.06367 31.7131 4.61732 31.75 6.2503Z" fill="#F8F8F8"/>
    <path d="M31.75 12.5H19.25C17.6875 12.5 16.125 14.0625 16.125 15.625V28.125C16.125 29.6875 17.6875 31.25 19.25 31.25V50H31.75V31.25C33.3125 31.25 34.875 29.6875 34.875 28.125V15.625C34.875 14.0625 33.3125 12.5 31.75 12.5Z" fill="#F8F8F8"/>
  </g>
  <defs>
    <clipPath id="clip0_2253_31531">
      <rect width="50" height="50" fill="white" transform="translate(0.5)"/>
    </clipPath>
  </defs>
</svg>