<svg xmlns="http://www.w3.org/2000/svg" width="50" height="50" viewBox="0 0 50 50" fill="none">
  <path d="M48.3027 24.3672C48.2344 24.2129 46.5801 20.543 42.9023 16.8652C38.0019 11.9648 31.8125 9.375 25 9.375C18.1875 9.375 11.998 11.9648 7.09764 16.8652C3.4199 20.543 1.75779 24.2188 1.69725 24.3672C1.60841 24.567 1.5625 24.7833 1.5625 25.002C1.5625 25.2206 1.60841 25.4369 1.69725 25.6367C1.76561 25.791 3.4199 29.459 7.09764 33.1367C11.998 38.0352 18.1875 40.625 25 40.625C31.8125 40.625 38.0019 38.0352 42.9023 33.1367C46.5801 29.459 48.2344 25.791 48.3027 25.6367C48.3916 25.4369 48.4375 25.2206 48.4375 25.002C48.4375 24.7833 48.3916 24.567 48.3027 24.3672ZM25 32.8125C23.4548 32.8125 21.9443 32.3543 20.6596 31.4959C19.3748 30.6374 18.3735 29.4173 17.7822 27.9897C17.1909 26.5622 17.0361 24.9913 17.3376 23.4759C17.639 21.9604 18.3831 20.5683 19.4757 19.4757C20.5683 18.3831 21.9604 17.6391 23.4758 17.3376C24.9913 17.0362 26.5621 17.1909 27.9897 17.7822C29.4172 18.3735 30.6374 19.3748 31.4958 20.6596C32.3543 21.9444 32.8125 23.4548 32.8125 25C32.8125 27.072 31.9894 29.0591 30.5243 30.5243C29.0591 31.9894 27.072 32.8125 25 32.8125Z" fill="#F8F8F8"/>
</svg>