<svg xmlns="http://www.w3.org/2000/svg" width="85" height="84" viewBox="0 0 85 84" fill="none">
<g clip-path="url(#clip0_2342_8830)">
<path d="M42.5047 0.125977C41.7261 0.125977 40.9793 0.43529 40.4287 0.985872C39.8781 1.53645 39.5688 2.2832 39.5688 3.06184V78.1362H31.5413C30.7627 78.1362 30.0159 78.4455 29.4654 78.996C28.9148 79.5466 28.6055 80.2934 28.6055 81.072C28.6055 81.8507 28.9148 82.5974 29.4654 83.148C30.0159 83.6986 30.7627 84.0079 31.5413 84.0079H52.5118C53.2904 84.0079 54.0372 83.6986 54.5878 83.148C55.1384 82.5974 55.4477 81.8507 55.4477 81.072C55.4477 80.2934 55.1384 79.5466 54.5878 78.996C54.0372 78.4455 53.2904 78.1362 52.5118 78.1362H45.4406V39.5505H81.5098C82.2884 39.5505 83.0352 39.2412 83.5857 38.6906C84.1363 38.14 84.4456 37.3932 84.4456 36.6146V3.06184C84.4456 2.2832 84.1363 1.53645 83.5857 0.985872C83.0352 0.43529 82.2884 0.125977 81.5098 0.125977H42.9241C42.853 0.126192 42.7819 0.12899 42.711 0.134365C42.6424 0.12915 42.5736 0.126352 42.5047 0.125977ZM54.0804 5.99771H62.3008V12.2301H70.5212V5.99771H78.5739V12.2301H70.5212V20.4497H78.5739V28.6702H70.5212V33.6787H62.3008V28.671H54.0804V33.6787H45.86V28.671H54.0804V20.4497H45.86V12.2293H54.0804V5.99771ZM54.0804 12.2301V20.4497H62.3008V12.2293L54.0804 12.2301ZM62.3008 20.4497V28.671L70.5212 28.6702V20.4497H62.3008Z" fill="black"/>
<rect x="28.3232" y="77.9727" width="27.156" height="6.03467" rx="3.01733" fill="black"/>
</g>
<defs>
<clipPath id="clip0_2342_8830">
<rect width="83.8819" height="83.8819" fill="white" transform="translate(0.563477 0.125977)"/>
</clipPath>
</defs>
</svg>