<svg xmlns="http://www.w3.org/2000/svg" width="38" height="50" viewBox="0 0 38 50" fill="none">
  <g clip-path="url(#clip0_2230_26743)">
    <path d="M6.25 45.3125C5.39062 45.3125 4.6875 44.6094 4.6875 43.75V6.25C4.6875 5.39062 5.39062 4.6875 6.25 4.6875H21.875V12.5C21.875 14.2285 23.2715 15.625 25 15.625H32.8125V43.75C32.8125 44.6094 32.1094 45.3125 31.25 45.3125H6.25ZM6.25 0C2.80273 0 0 2.80273 0 6.25V43.75C0 47.1973 2.80273 50 6.25 50H31.25C34.6973 50 37.5 47.1973 37.5 43.75V15.0879C37.5 13.4277 36.8457 11.8359 35.6738 10.6641L26.8262 1.82617C25.6543 0.654297 24.0723 0 22.4121 0H6.25ZM15.7227 28.2227C16.6406 27.3047 16.6406 25.8203 15.7227 24.9121C14.8047 24.0039 13.3203 23.9941 12.4121 24.9121L7.71484 29.5898C6.79688 30.5078 6.79688 31.9922 7.71484 32.9004L12.4023 37.5879C13.3203 38.5059 14.8047 38.5059 15.7129 37.5879C16.6211 36.6699 16.6309 35.1855 15.7129 34.2773L12.6855 31.25L15.7129 28.2227H15.7227ZM25.0977 24.9023C24.1797 23.9844 22.6953 23.9844 21.7871 24.9023C20.8789 25.8203 20.8691 27.3047 21.7871 28.2129L24.8145 31.2402L21.7871 34.2676C20.8691 35.1855 20.8691 36.6699 21.7871 37.5781C22.7051 38.4863 24.1895 38.4961 25.0977 37.5781L29.7852 32.8906C30.7031 31.9727 30.7031 30.4883 29.7852 29.5801L25.0977 24.8926V24.9023Z" fill="#FF8541"/>
  </g>
  <defs>
    <clipPath id="clip0_2230_26743">
      <rect width="37.5" height="50" fill="white"/>
    </clipPath>
  </defs>
</svg>