<svg xmlns="http://www.w3.org/2000/svg" width="50" height="50" viewBox="0 0 50 50" fill="none">
  <path d="M5.04687 50C3.60937 50 2.40937 49.5187 1.44687 48.5563C0.482291 47.5917 0 46.3906 0 44.9531V5.04687C0 3.60937 0.482291 2.40937 1.44687 1.44687C2.40937 0.482291 3.60937 0 5.04687 0H44.9531C46.3906 0 47.5906 0.482291 48.5531 1.44687C49.5177 2.40937 50 3.60937 50 5.04687V44.9531C50 46.3906 49.5187 47.5906 48.5563 48.5531C47.5917 49.5177 46.3906 50 44.9531 50H5.04687ZM25 39.8438C29 36.4604 31.9792 33.3146 33.9375 30.4062C35.8958 27.4958 36.875 24.8031 36.875 22.3281C36.875 18.5719 35.6854 15.6042 33.3063 13.425C30.925 11.2458 28.1562 10.1562 25 10.1562C21.8438 10.1562 19.075 11.2469 16.6938 13.4281C14.3146 15.6115 13.125 18.576 13.125 22.3219C13.125 24.7927 14.1115 27.4833 16.0844 30.3937C18.0573 33.3042 21.0292 36.4542 25 39.8438ZM24.9906 25.6625C24.0635 25.6625 23.2823 25.3417 22.6469 24.7C22.0115 24.0583 21.6938 23.274 21.6938 22.3469C21.6938 21.4198 22.0146 20.6385 22.6562 20.0031C23.2958 19.3677 24.0802 19.05 25.0094 19.05C25.9365 19.05 26.7177 19.3708 27.3531 20.0125C27.9885 20.6521 28.3062 21.4365 28.3062 22.3656C28.3062 23.2927 27.9854 24.074 27.3438 24.7094C26.7042 25.3448 25.9198 25.6625 24.9906 25.6625Z" fill="#FF8541"/>
</svg>