<svg xmlns="http://www.w3.org/2000/svg" width="50" height="50" viewBox="0 0 50 50" fill="none">
  <path d="M11.458 41.6663C10.59 41.6663 9.85245 41.3629 9.24551 40.7559C8.63856 40.149 8.3344 39.4108 8.33301 38.5413C8.33301 37.6733 8.63717 36.9358 9.24551 36.3288C9.85384 35.7219 10.5913 35.4177 11.458 35.4163C12.3261 35.4163 13.0643 35.7205 13.6726 36.3288C14.2809 36.9372 14.5844 37.6747 14.583 38.5413C14.583 39.4094 14.2795 40.1476 13.6726 40.7559C13.0656 41.3643 12.3275 41.6677 11.458 41.6663ZM20.4684 41.6663C19.6004 41.6663 18.8629 41.3629 18.2559 40.7559C17.649 40.149 17.3441 39.4108 17.3413 38.5413C17.3413 37.6733 17.6455 36.9358 18.2538 36.3288C18.8622 35.7219 19.6004 35.4177 20.4684 35.4163C21.3365 35.4163 22.0747 35.7205 22.683 36.3288C23.2913 36.9372 23.5948 37.6747 23.5934 38.5413C23.5934 39.4094 23.29 40.1476 22.683 40.7559C22.0761 41.3643 21.3379 41.6677 20.4684 41.6663ZM29.5309 41.6663C28.6629 41.6663 27.9254 41.3629 27.3184 40.7559C26.7115 40.149 26.4073 39.4108 26.4059 38.5413C26.4059 37.6733 26.7101 36.9358 27.3184 36.3288C27.9268 35.7219 28.6643 35.4177 29.5309 35.4163C30.399 35.4163 31.1372 35.7205 31.7455 36.3288C32.3538 36.9372 32.6573 37.6747 32.6559 38.5413C32.6559 39.4094 32.3525 40.1476 31.7455 40.7559C31.1386 41.3643 30.4004 41.6677 29.5309 41.6663ZM38.5413 41.6663C37.6733 41.6663 36.9358 41.3629 36.3288 40.7559C35.7219 40.149 35.4177 39.4108 35.4163 38.5413C35.4163 37.6733 35.7205 36.9358 36.3288 36.3288C36.9372 35.7219 37.6747 35.4177 38.5413 35.4163C39.4094 35.4163 40.1476 35.7205 40.7559 36.3288C41.3643 36.9372 41.6677 37.6747 41.6663 38.5413C41.6663 39.4094 41.3629 40.1476 40.7559 40.7559C40.149 41.3643 39.4108 41.6677 38.5413 41.6663ZM11.458 32.6559C10.59 32.6559 9.85245 32.3525 9.24551 31.7455C8.63856 31.1386 8.3344 30.4004 8.33301 29.5309C8.33301 28.6629 8.63717 27.9254 9.24551 27.3184C9.85384 26.7115 10.5913 26.4073 11.458 26.4059C12.3261 26.4059 13.0643 26.7101 13.6726 27.3184C14.2809 27.9268 14.5844 28.6643 14.583 29.5309C14.583 30.399 14.2795 31.1372 13.6726 31.7455C13.0656 32.3538 12.3275 32.6573 11.458 32.6559ZM20.4684 32.6559C19.6004 32.6559 18.8629 32.3525 18.2559 31.7455C17.649 31.1386 17.3448 30.4004 17.3434 29.5309C17.3434 28.6629 17.6476 27.9254 18.2559 27.3184C18.8643 26.7115 19.6018 26.4073 20.4684 26.4059C21.3365 26.4059 22.0747 26.7101 22.683 27.3184C23.2913 27.9268 23.5948 28.6643 23.5934 29.5309C23.5934 30.399 23.29 31.1372 22.683 31.7455C22.0761 32.3538 21.3379 32.6573 20.4684 32.6559ZM29.5309 32.6559C28.6629 32.6559 27.9254 32.3525 27.3184 31.7455C26.7115 31.1386 26.4073 30.4004 26.4059 29.5309C26.4059 28.6629 26.7101 27.9254 27.3184 27.3184C27.9268 26.7115 28.6643 26.4073 29.5309 26.4059C30.399 26.4059 31.1372 26.7101 31.7455 27.3184C32.3538 27.9268 32.6573 28.6643 32.6559 29.5309C32.6559 30.399 32.3525 31.1372 31.7455 31.7455C31.1386 32.3538 30.4004 32.6573 29.5309 32.6559ZM38.5413 32.6559C37.6733 32.6559 36.9358 32.3525 36.3288 31.7455C35.7219 31.1386 35.4177 30.4004 35.4163 29.5309C35.4163 28.6629 35.7205 27.9254 36.3288 27.3184C36.9372 26.7115 37.6747 26.4073 38.5413 26.4059C39.4094 26.4059 40.1476 26.7101 40.7559 27.3184C41.3643 27.9268 41.6677 28.6643 41.6663 29.5309C41.6663 30.399 41.3629 31.1372 40.7559 31.7455C40.149 32.3538 39.4108 32.6573 38.5413 32.6559ZM11.458 23.5934C10.59 23.5934 9.85245 23.29 9.24551 22.683C8.63856 22.0761 8.3344 21.3379 8.33301 20.4684C8.33301 19.6004 8.63717 18.8629 9.24551 18.2559C9.85384 17.649 10.5913 17.3448 11.458 17.3434C12.3261 17.3434 13.0643 17.6476 13.6726 18.2559C14.2809 18.8643 14.5844 19.6018 14.583 20.4684C14.583 21.3365 14.2795 22.0747 13.6726 22.683C13.0656 23.2913 12.3275 23.5948 11.458 23.5934ZM20.4684 23.5934C19.6004 23.5934 18.8629 23.29 18.2559 22.683C17.649 22.0761 17.3448 21.3379 17.3434 20.4684C17.3434 19.6004 17.6476 18.8629 18.2559 18.2559C18.8643 17.649 19.6018 17.3448 20.4684 17.3434C21.3365 17.3434 22.0747 17.6476 22.683 18.2559C23.2913 18.8643 23.5948 19.6018 23.5934 20.4684C23.5934 21.3365 23.29 22.0747 22.683 22.683C22.0761 23.2913 21.3379 23.5948 20.4684 23.5934ZM29.5309 23.5934C28.6629 23.5934 27.9254 23.29 27.3184 22.683C26.7115 22.0761 26.4073 21.3379 26.4059 20.4684C26.4059 19.6004 26.7101 18.8629 27.3184 18.2559C27.9268 17.649 28.6643 17.3448 29.5309 17.3434C30.399 17.3434 31.1372 17.6476 31.7455 18.2559C32.3538 18.8643 32.6573 19.6018 32.6559 20.4684C32.6559 21.3365 32.3525 22.0747 31.7455 22.683C31.1386 23.2913 30.4004 23.5948 29.5309 23.5934ZM38.5413 23.5934C37.6733 23.5934 36.9358 23.29 36.3288 22.683C35.7219 22.0761 35.4177 21.3379 35.4163 20.4684C35.4163 19.6004 35.7205 18.8629 36.3288 18.2559C36.9372 17.649 37.6747 17.3448 38.5413 17.3434C39.4094 17.3434 40.1476 17.6476 40.7559 18.2559C41.3643 18.8643 41.6677 19.6018 41.6663 20.4684C41.6663 21.3365 41.3629 22.0747 40.7559 22.683C40.149 23.2913 39.4108 23.5948 38.5413 23.5934ZM11.458 14.583C10.59 14.583 9.85245 14.2795 9.24551 13.6726C8.63856 13.0656 8.3344 12.3275 8.33301 11.458C8.33301 10.59 8.63717 9.85245 9.24551 9.24551C9.85384 8.63856 10.5913 8.3344 11.458 8.33301C12.3261 8.33301 13.0643 8.63717 13.6726 9.24551C14.2809 9.85384 14.5844 10.5913 14.583 11.458C14.583 12.3261 14.2795 13.0643 13.6726 13.6726C13.0656 14.2809 12.3275 14.5844 11.458 14.583ZM20.4684 14.583C19.6004 14.583 18.8629 14.2795 18.2559 13.6726C17.649 13.0656 17.3441 12.3275 17.3413 11.458C17.3413 10.59 17.6455 9.85245 18.2538 9.24551C18.8622 8.63856 19.6004 8.3344 20.4684 8.33301C21.3365 8.33301 22.0747 8.63717 22.683 9.24551C23.2913 9.85384 23.5948 10.5913 23.5934 11.458C23.5934 12.3261 23.29 13.0643 22.683 13.6726C22.0761 14.2809 21.3379 14.5844 20.4684 14.583ZM29.5309 14.583C28.6629 14.583 27.9254 14.2795 27.3184 13.6726C26.7115 13.0656 26.4073 12.3275 26.4059 11.458C26.4059 10.59 26.7101 9.85245 27.3184 9.24551C27.9268 8.63856 28.6643 8.3344 29.5309 8.33301C30.399 8.33301 31.1372 8.63717 31.7455 9.24551C32.3538 9.85384 32.6573 10.5913 32.6559 11.458C32.6559 12.3261 32.3525 13.0643 31.7455 13.6726C31.1386 14.2809 30.4004 14.5844 29.5309 14.583ZM38.5413 14.583C37.6733 14.583 36.9358 14.2795 36.3288 13.6726C35.7219 13.0656 35.4177 12.3275 35.4163 11.458C35.4163 10.59 35.7205 9.85245 36.3288 9.24551C36.9372 8.63856 37.6747 8.3344 38.5413 8.33301C39.4094 8.33301 40.1476 8.63717 40.7559 9.24551C41.3643 9.85384 41.6677 10.5913 41.6663 11.458C41.6663 12.3261 41.3629 13.0643 40.7559 13.6726C40.149 14.2809 39.4108 14.5844 38.5413 14.583Z" fill="#F8F8F8"/>
</svg>
