<svg xmlns="http://www.w3.org/2000/svg" width="50" height="50" viewBox="0 0 50 50" fill="none">
  <path fill-rule="evenodd" clip-rule="evenodd" d="M7.92129 0C5.51772 0 3.57129 1.94643 3.57129 4.35V20.6714C3.57129 23.0786 5.51772 25.0286 7.92129 25.0286H42.0784C44.482 25.0286 46.4284 23.0786 46.4284 20.6714V4.35C46.4284 1.94643 44.482 0 42.0784 0H7.92129ZM17.5749 33.7179C17.5749 35.0832 17.0325 36.3927 16.067 37.3582C15.1015 38.3237 13.792 38.8661 12.4266 38.8661C11.0613 38.8661 9.75179 38.3237 8.78631 37.3582C7.82083 36.3927 7.27843 35.0832 7.27843 33.7179C7.27843 32.3525 7.82083 31.043 8.78631 30.0775C9.75179 29.112 11.0613 28.5696 12.4266 28.5696C13.792 28.5696 15.1015 29.112 16.067 30.0775C17.0325 31.043 17.5749 32.3525 17.5749 33.7179ZM37.5891 38.8679C38.9545 38.8679 40.264 38.3255 41.2295 37.36C42.195 36.3945 42.7374 35.085 42.7374 33.7196C42.7374 32.3543 42.195 31.0448 41.2295 30.0793C40.264 29.1138 38.9545 28.5714 37.5891 28.5714C36.2238 28.5714 34.9143 29.1138 33.9488 30.0793C32.9833 31.0448 32.4409 32.3543 32.4409 33.7196C32.4409 35.085 32.9833 36.3945 33.9488 37.36C34.9143 38.3255 36.2238 38.8679 37.5891 38.8679ZM12.4249 41.6464C10.4533 41.6468 8.54556 42.3453 7.03995 43.6182C5.53435 44.891 4.52817 46.656 4.19986 48.6C4.07486 49.3571 4.71057 49.9857 5.47843 49.9857H19.3749C20.1427 49.9857 20.7784 49.3571 20.6534 48.6C20.325 46.6554 19.3183 44.8899 17.812 43.617C16.3056 42.3441 14.397 41.6459 12.4249 41.6464ZM29.3641 48.6C29.692 46.6552 30.6982 44.8895 32.2042 43.6161C33.7103 42.3427 35.6187 41.644 37.5909 41.644C39.5632 41.644 41.4716 42.3427 42.9776 43.6161C44.4837 44.8895 45.4899 46.6552 45.8177 48.6C45.9427 49.3571 45.307 49.9857 44.5391 49.9857H30.6427C29.8784 49.9857 29.2391 49.3571 29.3641 48.6ZM29.0106 7.575C29.0106 8.63871 28.588 9.65885 27.8359 10.411C27.0837 11.1632 26.0636 11.5857 24.9999 11.5857C23.9362 11.5857 22.916 11.1632 22.1639 10.411C21.4117 9.65885 20.9891 8.63871 20.9891 7.575C20.9891 6.51129 21.4117 5.49115 22.1639 4.739C22.916 3.98684 23.9362 3.56429 24.9999 3.56429C26.0636 3.56429 27.0837 3.98684 27.8359 4.739C28.588 5.49115 29.0106 6.51129 29.0106 7.575ZM17.9463 20.2036C18.228 18.5366 19.0909 17.0233 20.3821 15.932C21.6733 14.8407 23.3093 14.2419 24.9999 14.2419C26.6905 14.2419 28.3264 14.8407 29.6176 15.932C30.9088 17.0233 31.7717 18.5366 32.0534 20.2036C32.1606 20.8536 31.6177 21.3893 30.9606 21.3893H19.0356C18.3784 21.3893 17.8391 20.8536 17.9463 20.2036Z" fill="#F8F8F8"/>
</svg>