<svg xmlns="http://www.w3.org/2000/svg" width="50" height="50" viewBox="0 0 50 50" fill="none">
  <rect width="50" height="50" rx="8" fill="#FF8541"/>
  <path d="M30.7938 9.60893C29.2355 7.9265 27.0589 7 24.6566 7C22.2415 7 20.0578 7.92089 18.5066 9.59291C16.9387 11.2834 16.1748 13.5808 16.3542 16.0616C16.7097 20.9559 20.4341 24.9374 24.6566 24.9374C28.8791 24.9374 32.5971 20.9567 32.9583 16.0632C33.14 13.6048 32.3713 11.3122 30.7938 9.60893ZM38.7503 42.8748H10.5629C10.194 42.8796 9.82862 42.8021 9.4934 42.6479C9.15817 42.4937 8.86154 42.2668 8.62506 41.9835C8.10456 41.3613 7.89476 40.5117 8.05011 39.6525C8.72596 35.9032 10.8352 32.7538 14.1504 30.5428C17.0957 28.5801 20.8265 27.4999 24.6566 27.4999C28.4867 27.4999 32.2175 28.5809 35.1628 30.5428C38.478 32.753 40.5873 35.9024 41.2631 39.6517C41.4185 40.5109 41.2087 41.3605 40.6882 41.9827C40.4518 42.2661 40.1552 42.4932 39.8199 42.6475C39.4847 42.8019 39.1193 42.8795 38.7503 42.8748Z" fill="white"/>
</svg>