<svg xmlns="http://www.w3.org/2000/svg" width="50" height="50" viewBox="0 0 50 50" fill="none">
  <path d="M24.8962 37.5003C25.6253 37.5003 26.242 37.2482 26.7462 36.7441C27.2503 36.2399 27.5017 35.6239 27.5003 34.8962C27.5003 34.167 27.2489 33.5503 26.7462 33.0462C26.2434 32.542 25.6267 32.2906 24.8962 32.292C24.167 32.292 23.551 32.5441 23.0482 33.0482C22.5455 33.5524 22.2934 34.1684 22.292 34.8962C22.292 35.6253 22.5441 36.242 23.0482 36.7462C23.5524 37.2503 24.1684 37.5017 24.8962 37.5003ZM23.0212 29.4795H26.8753C26.8753 28.3337 27.0059 27.4309 27.267 26.7712C27.5281 26.1114 28.2656 25.2087 29.4795 24.0628C30.3823 23.16 31.0941 22.3003 31.6149 21.4837C32.1357 20.667 32.3962 19.6864 32.3962 18.542C32.3962 16.5975 31.6843 15.1045 30.2607 14.0628C28.8371 13.0212 27.1531 12.5003 25.2087 12.5003C23.2295 12.5003 21.6239 13.0212 20.392 14.0628C19.16 15.1045 18.3003 16.3545 17.8128 17.8128L21.2503 19.167C21.4239 18.542 21.8149 17.8649 22.4232 17.1357C23.0316 16.4066 23.96 16.042 25.2087 16.042C26.3198 16.042 27.1531 16.3462 27.7087 16.9545C28.2642 17.5628 28.542 18.2309 28.542 18.9587C28.542 19.6531 28.3337 20.3045 27.917 20.9128C27.5003 21.5212 26.9795 22.085 26.3545 22.6045C24.8267 23.9587 23.8892 24.983 23.542 25.6774C23.1948 26.3718 23.0212 27.6392 23.0212 29.4795ZM25.0003 45.8337C22.1184 45.8337 19.41 45.2871 16.8753 44.1941C14.3406 43.101 12.1357 41.6163 10.2607 39.7399C8.38574 37.8649 6.90171 35.66 5.80866 33.1253C4.7156 30.5906 4.16838 27.8823 4.16699 25.0003C4.16699 22.1184 4.71421 19.41 5.80866 16.8753C6.9031 14.3406 8.38713 12.1357 10.2607 10.2607C12.1357 8.38574 14.3406 6.90171 16.8753 5.80866C19.41 4.7156 22.1184 4.16838 25.0003 4.16699C27.8823 4.16699 30.5906 4.71421 33.1253 5.80866C35.66 6.9031 37.8649 8.38713 39.7399 10.2607C41.6149 12.1357 43.0996 14.3406 44.1941 16.8753C45.2885 19.41 45.835 22.1184 45.8337 25.0003C45.8337 27.8823 45.2864 30.5906 44.192 33.1253C43.0975 35.66 41.6135 37.8649 39.7399 39.7399C37.8649 41.6149 35.66 43.0996 33.1253 44.1941C30.5906 45.2885 27.8823 45.835 25.0003 45.8337Z" fill="#F8F8F8"/>
</svg>