<svg width="90" height="28" viewBox="0 0 90 28" fill="none" xmlns="http://www.w3.org/2000/svg">
<g id="Amazon_logo 1" clip-path="url(#clip0_388_1749)">
<path id="path8" d="M55.8221 21.9625C50.5983 25.8128 43.0267 27.8671 36.5077 27.8671C27.367 27.8671 19.138 24.4863 12.9125 18.8634C12.4234 18.4212 12.8616 17.8186 13.4486 18.163C20.1671 22.072 28.4744 24.4237 37.0555 24.4237C42.8428 24.4237 49.2092 23.2263 55.063 20.7416C55.9473 20.366 56.6869 21.3207 55.8221 21.9625Z" fill="#FF9900"/>
<path id="path10" d="M57.9933 19.4778C57.3281 18.6248 53.5795 19.0748 51.897 19.2744C51.3844 19.337 51.3061 18.8909 51.7678 18.57C54.7534 16.4688 59.6524 17.0753 60.2237 17.7796C60.795 18.4879 60.075 23.3986 57.2694 25.7425C56.839 26.1025 56.4282 25.9108 56.6199 25.4334C57.2499 23.8604 58.6625 20.3348 57.9933 19.4778Z" fill="#FF9900"/>
<path id="path12" d="M52.0146 3.73584V1.69327C52.0146 1.38414 52.2493 1.17676 52.5311 1.17676H61.6757C61.9691 1.17676 62.2039 1.38806 62.2039 1.69327V3.44236C62.2 3.73584 61.9535 4.11931 61.5152 4.72581L56.7766 11.4913C58.5375 11.4483 60.3961 11.7105 61.9926 12.6104C62.3526 12.8139 62.4504 13.1113 62.4778 13.4048V15.5843C62.4778 15.8817 62.1491 16.2299 61.8048 16.0499C58.9914 14.5747 55.2545 14.4143 52.1437 16.0656C51.8267 16.2378 51.4941 15.8934 51.4941 15.596V13.5261C51.4941 13.1935 51.4981 12.6261 51.8307 12.1213L57.3205 4.24843H52.5428C52.2493 4.24843 52.0146 4.04105 52.0146 3.73584Z" fill="#221F1F"/>
<path id="path14" d="M18.6565 16.4803H15.8744C15.6083 16.4608 15.397 16.2612 15.3774 16.0068V1.72845C15.3774 1.4428 15.6161 1.21585 15.9135 1.21585H18.5078C18.7778 1.22758 18.993 1.43497 19.0126 1.69323V3.55972H19.0635C19.7404 1.75584 21.0121 0.914551 22.726 0.914551C24.4672 0.914551 25.555 1.75584 26.3376 3.55972C27.0107 1.75584 28.5406 0.914551 30.1802 0.914551C31.3462 0.914551 32.6219 1.39584 33.4005 2.47582C34.2809 3.6771 34.101 5.42228 34.101 6.95225L34.097 15.9638C34.097 16.2495 33.8584 16.4803 33.561 16.4803H30.7828C30.5049 16.4608 30.2819 16.2377 30.2819 15.9638V8.39614C30.2819 7.79354 30.3367 6.29096 30.2036 5.71967C29.9963 4.761 29.3741 4.491 28.568 4.491C27.895 4.491 27.1907 4.94099 26.905 5.66098C26.6194 6.38096 26.6468 7.58615 26.6468 8.39614V15.9638C26.6468 16.2495 26.4081 16.4803 26.1107 16.4803H23.3325C23.0508 16.4608 22.8316 16.2377 22.8316 15.9638L22.8277 8.39614C22.8277 6.80356 23.0899 4.4597 21.1138 4.4597C19.1143 4.4597 19.1926 6.74486 19.1926 8.39614V15.9638C19.1926 16.2495 18.9539 16.4803 18.6565 16.4803Z" fill="#221F1F"/>
<path id="path16" d="M70.0767 0.914551C74.2048 0.914551 76.4391 4.4597 76.4391 8.96743C76.4391 13.3226 73.97 16.7777 70.0767 16.7777C66.0228 16.7777 63.8159 13.2326 63.8159 8.81483C63.8159 4.3697 66.0502 0.914551 70.0767 0.914551ZM70.1001 3.82971C68.0497 3.82971 67.9206 6.62357 67.9206 8.36484C67.9206 10.11 67.8932 13.8352 70.0767 13.8352C72.2327 13.8352 72.3344 10.83 72.3344 8.99873C72.3344 7.79354 72.2836 6.35357 71.9197 5.21099C71.6066 4.2171 70.9845 3.82971 70.1001 3.82971Z" fill="#221F1F"/>
<path id="path18" d="M81.7922 16.4803H79.0219C78.744 16.4608 78.521 16.2377 78.521 15.9638L78.5171 1.68149C78.5406 1.41932 78.7714 1.21585 79.0532 1.21585H81.6318C81.8744 1.22758 82.074 1.39193 82.1288 1.61497V3.7984H82.1796C82.9583 1.84584 84.05 0.914551 85.9713 0.914551C87.2195 0.914551 88.4365 1.36454 89.219 2.59712C89.9469 3.73971 89.9469 5.66098 89.9469 7.04225V16.0303C89.9156 16.2808 89.6847 16.4803 89.4108 16.4803H86.6208C86.3665 16.4608 86.1552 16.2729 86.1278 16.0303V8.27484C86.1278 6.71356 86.3078 4.42839 84.3865 4.42839C83.7096 4.42839 83.0874 4.8823 82.7783 5.57098C82.387 6.44357 82.3361 7.31225 82.3361 8.27484V15.9638C82.3322 16.2495 82.0896 16.4803 81.7922 16.4803Z" fill="#221F1F"/>
<path id="use28" d="M44.7245 9.66002V9.05743C42.7133 9.05743 40.5885 9.48785 40.5885 11.8591C40.5885 13.0604 41.2107 13.8743 42.2789 13.8743C43.0615 13.8743 43.7619 13.393 44.2041 12.6104C44.7519 11.6478 44.7245 10.7439 44.7245 9.66002ZM47.5301 16.4412C47.3462 16.6055 47.0801 16.6173 46.8727 16.5077C45.9493 15.7408 45.7849 15.3847 45.2762 14.653C43.7502 16.2103 42.6702 16.676 40.6902 16.676C38.3503 16.676 36.5269 15.2321 36.5269 12.3404C36.5269 10.0826 37.7516 8.54483 39.4929 7.79354C41.0033 7.12833 43.1124 7.01095 44.7245 6.82704V6.46704C44.7245 5.80575 44.7754 5.02316 44.388 4.45187C44.0476 3.93927 43.398 3.72797 42.8267 3.72797C41.7663 3.72797 40.8194 4.27187 40.5885 5.3988C40.5416 5.64923 40.3576 5.89575 40.1072 5.90749L37.4073 5.61793C37.1803 5.56706 36.9299 5.38315 36.9925 5.0349C37.6147 1.76366 40.5689 0.777588 43.2141 0.777588C44.568 0.777588 46.3367 1.13758 47.4049 2.16278C48.7588 3.42667 48.6297 5.11315 48.6297 6.94834V11.2839C48.6297 12.5869 49.1696 13.1582 49.6783 13.8626C49.8583 14.113 49.8975 14.4143 49.6705 14.6021C49.1031 15.0756 48.0936 15.956 47.5379 16.449L47.5301 16.4412Z" fill="#221F1F"/>
<path id="path30" d="M8.25186 9.66002V9.05743C6.24059 9.05743 4.11586 9.48785 4.11586 11.8591C4.11586 13.0604 4.73802 13.8743 5.80626 13.8743C6.58885 13.8743 7.28927 13.393 7.73144 12.6104C8.27925 11.6478 8.25186 10.7439 8.25186 9.66002ZM11.0575 16.4412C10.8735 16.6055 10.6075 16.6173 10.4001 16.5077C9.47662 15.7408 9.31227 15.3847 8.80359 14.653C7.27753 16.2103 6.19755 16.676 4.21759 16.676C1.87764 16.676 0.0541992 15.2321 0.0541992 12.3404C0.0541992 10.0826 1.27896 8.54483 3.02023 7.79354C4.53063 7.12833 6.63972 7.01095 8.25186 6.82704V6.46704C8.25186 5.80575 8.30273 5.02316 7.91535 4.45187C7.57492 3.93927 6.92536 3.72797 6.35407 3.72797C5.29366 3.72797 4.34672 4.27187 4.11586 5.3988C4.0689 5.64923 3.88499 5.89575 3.63456 5.90749L0.934616 5.61793C0.707664 5.56706 0.457234 5.38315 0.519841 5.0349C1.142 1.76366 4.09629 0.777588 6.74146 0.777588C8.09534 0.777588 9.864 1.13758 10.9322 2.16278C12.2861 3.42667 12.157 5.11315 12.157 6.94834V11.2839C12.157 12.5869 12.697 13.1582 13.2057 13.8626C13.3857 14.113 13.4248 14.4143 13.1978 14.6021C12.6305 15.0756 11.6209 15.956 11.0653 16.449L11.0575 16.4412Z" fill="#221F1F"/>
</g>
<defs>
<clipPath id="clip0_388_1749">
<rect width="90" height="27.1642" fill="white" transform="translate(0 0.740967)"/>
</clipPath>
</defs>
</svg>
