<svg width="80" height="11" viewBox="0 0 80 11" fill="none" xmlns="http://www.w3.org/2000/svg">
<g id="Oracle_logo 1" clip-path="url(#clip0_388_1759)">
<path id="Vector" d="M34.559 7.28682H39.7709L37.0179 2.84093L31.9564 10.8709H29.6548L35.8106 1.23698C35.9448 1.04474 36.1231 0.88746 36.3306 0.778312C36.5381 0.669165 36.7688 0.611331 37.0032 0.609657C37.2376 0.607982 37.4691 0.662515 37.6781 0.768688C37.8871 0.87486 38.0677 1.02958 38.2046 1.21988L44.3775 10.8709H42.0759L40.9918 9.07544H35.7183L34.5692 7.28682M58.4847 9.07544V0.706897H56.5285V9.89964C56.5282 10.0274 56.5537 10.1539 56.6037 10.2715C56.6537 10.389 56.727 10.4952 56.8192 10.5836C56.9118 10.6784 57.0225 10.7535 57.1447 10.8046C57.2669 10.8557 57.3981 10.8818 57.5305 10.8812H66.4223L67.5817 9.0857H58.4744M26.1425 7.58094C27.0541 7.58094 27.9283 7.21882 28.5729 6.57426C29.2174 5.92969 29.5796 5.05547 29.5796 4.14392C29.5796 3.23236 29.2174 2.35814 28.5729 1.71358C27.9283 1.06901 27.0541 0.706897 26.1425 0.706897H17.5927V10.8709H19.5455V2.50577H26.0228C26.4591 2.50577 26.8775 2.67909 27.186 2.98758C27.4945 3.29607 27.6678 3.71448 27.6678 4.15076C27.6678 4.58703 27.4945 5.00544 27.186 5.31393C26.8775 5.62243 26.4591 5.79574 26.0228 5.79574H20.5133L26.3477 10.8709H29.1828L25.2636 7.58094H26.1425ZM5.58198 10.8709H11.4882C12.8127 10.8365 14.0715 10.2862 14.9962 9.33721C15.9209 8.38822 16.4384 7.11561 16.4384 5.79061C16.4384 4.46561 15.9209 3.193 14.9962 2.244C14.0715 1.29501 12.8127 0.744686 11.4882 0.710316H5.58198C4.90374 0.692718 4.22884 0.811107 3.59708 1.0585C2.96532 1.3059 2.38949 1.67729 1.90356 2.15078C1.41762 2.62427 1.03142 3.19027 0.76772 3.8154C0.50402 4.44053 0.368164 5.11214 0.368164 5.79061C0.368164 6.46908 0.50402 7.14069 0.76772 7.76582C1.03142 8.39095 1.41762 8.95695 1.90356 9.43044C2.38949 9.90392 2.96532 10.2753 3.59708 10.5227C4.22884 10.7701 4.90374 10.8885 5.58198 10.8709ZM11.3548 9.08228H5.71194C4.8582 9.05475 4.04863 8.69624 3.45445 8.08258C2.86026 7.46892 2.52804 6.64822 2.52804 5.79403C2.52804 4.93984 2.86026 4.11914 3.45445 3.50548C4.04863 2.89182 4.8582 2.53331 5.71194 2.50577H11.3548C11.7955 2.49156 12.2347 2.56609 12.646 2.72494C13.0574 2.8838 13.4326 3.12373 13.7494 3.43047C14.0662 3.73722 14.3181 4.10452 14.4901 4.51055C14.6622 4.91659 14.7508 5.35306 14.7508 5.79403C14.7508 6.235 14.6622 6.67147 14.4901 7.0775C14.3181 7.48353 14.0662 7.85084 13.7494 8.15758C13.4326 8.46433 13.0574 8.70426 12.646 8.86311C12.2347 9.02197 11.7955 9.0965 11.3548 9.08228ZM48.4575 10.8709H54.4868L55.6291 9.08228H48.5909C48.1501 9.0965 47.711 9.02197 47.2997 8.86311C46.8883 8.70426 46.5131 8.46433 46.1963 8.15758C45.8795 7.85084 45.6276 7.48353 45.4555 7.0775C45.2835 6.67147 45.1949 6.235 45.1949 5.79403C45.1949 5.35306 45.2835 4.91659 45.4555 4.51055C45.6276 4.10452 45.8795 3.73722 46.1963 3.43047C46.5131 3.12373 46.8883 2.8838 47.2997 2.72494C47.711 2.56609 48.1501 2.49156 48.5909 2.50577H54.3192L55.4752 0.710316H48.4575C47.7793 0.692718 47.1044 0.811107 46.4726 1.0585C45.8408 1.3059 45.265 1.67729 44.7791 2.15078C44.2931 2.62427 43.9069 3.19027 43.6432 3.8154C43.3795 4.44053 43.2437 5.11214 43.2437 5.79061C43.2437 6.46908 43.3795 7.14069 43.6432 7.76582C43.9069 8.39095 44.2931 8.95695 44.7791 9.43044C45.265 9.90392 45.8408 10.2753 46.4726 10.5227C47.1044 10.7701 47.7793 10.8885 48.4575 10.8709ZM72.3525 9.08228C71.6359 9.08255 70.9389 8.84889 70.3673 8.41679C69.7957 7.98469 69.3808 7.3778 69.1856 6.68834H77.5371L78.6862 4.8963H69.1856C69.3803 4.20655 69.795 3.59934 70.3668 3.16716C70.9385 2.73497 71.6358 2.50152 72.3525 2.50236H78.0843L79.2299 0.706897H72.2191C70.8945 0.741266 69.6358 1.29159 68.7111 2.24058C67.7864 3.18958 67.2689 4.46219 67.2689 5.78719C67.2689 7.11219 67.7864 8.3848 68.7111 9.33379C69.6358 10.2828 70.8945 10.8331 72.2191 10.8675H78.2484L79.3941 9.07886H72.3491" fill="#C74634"/>
</g>
<defs>
<clipPath id="clip0_388_1759">
<rect width="79" height="10.2598" fill="white" transform="translate(0.5 0.611084)"/>
</clipPath>
</defs>
</svg>
